<?xml version="1.0" standalone="no"?>
<!DOCTYPE svg PUBLIC "-//W3C//DTD SVG 1.1//EN" "http://www.w3.org/Graphics/SVG/1.1/DTD/svg11.dtd" >
<svg xmlns="http://www.w3.org/2000/svg">
<metadata>
This is a custom SVG webfont generated by Font Squirrel.
Copyright   : Copyright  1988 1991 1995 2001 Adobe Systems Incorporated  All Rights Reserved
Designer    : Colin Brignall
Foundry URL : httpwwwadobecomtype
</metadata>
<defs>
<font id="ItaliaStdBook" horiz-adv-x="1138" >
<font-face units-per-em="2048" ascent="1442" descent="-606" />
<missing-glyph horiz-adv-x="569" />
<glyph unicode=" "  horiz-adv-x="569" />
<glyph unicode="&#x09;" horiz-adv-x="569" />
<glyph unicode="&#xa0;" horiz-adv-x="569" />
<glyph unicode="!" horiz-adv-x="569" d="M178 94q0 41 32 74t75 33t74.5 -33t31.5 -74t-31.5 -73.5t-74.5 -32.5t-75 32.5t-32 73.5zM186 1337q-2 25 11.5 37t40.5 12h77q31 0 44.5 -11t11.5 -40l-39 -927q0 -49 -35 -50h-33q-31 0 -35 50z" />
<glyph unicode="&#x22;" horiz-adv-x="681" d="M125 1245q-2 24 -2 45q0 121 72 121q70 0 69 -120q0 -21 -2 -46l-35 -418q-4 -63 -32 -63q-18 0 -24.5 12t-10.5 51zM420 1245q-2 24 -2 45q0 121 71 121q70 0 70 -120q0 -21 -2 -46l-35 -418q-4 -63 -33 -63q-18 0 -24 12t-10 51z" />
<glyph unicode="#" d="M80 543h233l41 301h-211l-6 98h232l61 444h111l-64 -444h271l61 444h111l-64 -444h197l6 -98h-217l-41 -301h194l6 -99h-215l-61 -444h-111l64 444h-270l-62 -444h-110l63 444h-213zM422 543h270l41 301h-270z" />
<glyph unicode="$" d="M145 240q0 31 37 30h21q45 0 85 -35.5t98 -74.5t151 -45v532q-74 23 -127.5 44.5t-112.5 59t-91 94t-32 130.5q0 158 98.5 246t264.5 112v107q0 29 26 28h62q27 0 26 -24v-111q145 -16 248 -59q78 -29 78 -154q0 -29 -25 -28h-49q-25 0 -49.5 24.5t-74.5 56t-128 46.5 v-465q195 -72 256 -117q137 -92 137 -262q0 -168 -116.5 -270.5t-276.5 -102.5v-139q0 -27 -26 -27h-64q-25 0 -24 27v139q-86 0 -203 26.5t-141 80.5q-48 94 -48 131zM328 1004q0 -47 13 -81t50 -59.5t54.5 -35t72.5 -31.5q12 -6 19 -9v431q-94 -18 -151.5 -71.5 t-57.5 -143.5zM651 115q106 10 173 72.5t67 177.5q0 68 -37 117.5t-67.5 68t-110.5 53.5l-25 12v-501z" />
<glyph unicode="%" horiz-adv-x="1820" d="M104 987q0 164 86 290t244 126t244 -126t86 -290t-86 -290t-244 -126t-244 126t-86 290zM244 987q0 -311 190.5 -311t190.5 311t-190.5 311t-190.5 -311zM393 18q0 10 15 33l897 1307q33 45 61 45q12 0 33.5 -12.5t21.5 -20.5q0 -23 -14 -45l-924 -1329q-8 -12 -24 -12 q-12 0 -39 13t-27 21zM1057 399.5q0 163.5 86 289.5t243.5 126t243.5 -126t86 -289.5t-86 -289.5t-243.5 -126t-243.5 126t-86 289.5zM1196 399.5q0 -311.5 190.5 -311.5t190.5 311.5t-190.5 311.5t-190.5 -311.5z" />
<glyph unicode="&#x26;" horiz-adv-x="1366" d="M86 412q0 139 73.5 221t225.5 162q-172 139 -172 288q0 156 102.5 242t259.5 86q145 0 247 -78t102 -217q0 -41 -10.5 -76.5t-19.5 -60.5t-40 -53.5t-42 -40t-58 -38t-57.5 -30.5t-67.5 -33l340 -335q43 63 43 155q0 41 -19.5 74t-56.5 33q-63 0 -64 37v47q0 31 39 30 h320q39 0 39 -30v-60q0 -25 -51 -24q-33 0 -52.5 -36t-36.5 -134q-10 -70 -63 -197l254 -256q29 -33 29 -45q0 -10 -28 -39t-36 -29q-16 0 -55 35l-232 213q-152 -223 -444 -223q-211 0 -340 102.5t-129 309.5zM252 434q0 -131 88 -223t217 -92q229 0 348 192l-424 398 q-117 -55 -173 -113t-56 -162zM379 1118q0 -47 31.5 -98t60.5 -79t80 -69q10 4 44 20.5t42 22t34.5 19.5t34 21.5t26 21.5t24.5 28l14 30q8 17 11 38t3 45q0 80 -61 127t-147.5 47t-141.5 -46t-55 -128z" />
<glyph unicode="'" horiz-adv-x="454" d="M158 1245q-2 24 -2 45q0 121 71 121q70 0 70 -120q0 -21 -2 -46l-35 -418q-4 -63 -33 -63q-18 0 -24 12t-10 51z" />
<glyph unicode="(" horiz-adv-x="681" d="M121 586q0 356 270 680q59 70 107.5 107.5t64.5 37.5q12 0 29.5 -18.5t17.5 -32.5q0 -8 -39 -51q-129 -145 -206.5 -342t-77.5 -387q0 -227 78.5 -438.5t234.5 -348.5q31 -27 31 -51q0 -14 -17.5 -27.5t-35.5 -13.5q-57 0 -213 195q-244 307 -244 690z" />
<glyph unicode=")" horiz-adv-x="681" d="M51 1370q0 14 17.5 27.5t35.5 13.5q57 0 213 -194q244 -307 244 -691q0 -356 -270 -680q-59 -70 -107.5 -107.5t-64.5 -37.5q-12 0 -29.5 18.5t-17.5 32.5q0 8 39 51q129 145 206.5 342t77.5 387q0 227 -78.5 438.5t-234.5 348.5q-31 26 -31 51z" />
<glyph unicode="*" horiz-adv-x="909" d="M135 1137q0 98 55 98q37 0 125 -49t121 -90l4 4q-14 23 -30.5 108.5t-16.5 141.5q0 37 14.5 49t45.5 12q72 0 71 -65q0 -41 -17.5 -123t-33.5 -113l4 -4q31 35 123 81t121 46q23 0 38 -25.5t15 -64.5t-68.5 -54.5t-218.5 -17.5v-6q51 -33 123 -100.5t72 -98.5 q0 -27 -27.5 -49t-58.5 -22q-35 0 -80 100t-59 158h-4q-6 -47 -60.5 -152.5t-75.5 -105.5q-31 0 -61.5 24.5t-30.5 48.5q0 31 76 101.5t117 95.5v6q-283 5 -283 66z" />
<glyph unicode="+" horiz-adv-x="1228" d="M145 416v106h416v416h107v-416h415v-106h-415v-416h-107v416h-416z" />
<glyph unicode="," horiz-adv-x="569" d="M178 96q0 45 26.5 75t71.5 30q63 0 95 -43t32 -111q0 -76 -64.5 -183.5t-107.5 -107.5q-18 0 -34.5 11.5t-16.5 25.5q0 10 36 69.5t36 90.5q0 27 -37 63.5t-37 79.5z" />
<glyph unicode="-" horiz-adv-x="681" d="M106 440v60q0 29 29 28h410q31 0 30 -30v-60q0 -29 -34 -28h-404q-31 -1 -31 30z" />
<glyph unicode="." horiz-adv-x="569" d="M178 94q0 41 32 74t75 33t74.5 -33t31.5 -74t-31.5 -73.5t-74.5 -32.5t-75 32.5t-32 73.5z" />
<glyph unicode="/" horiz-adv-x="569" d="M-31 -25l510 1436h121l-512 -1436h-119z" />
<glyph unicode="0" d="M74 694.5q0 139.5 26.5 260t82 224t154.5 164t232 60.5t232.5 -60.5t155 -164t82 -224t26.5 -260t-26.5 -261.5t-82 -225.5t-155 -163.5t-232.5 -60t-232 60t-154.5 163.5t-82 225.5t-26.5 261.5zM225 694.5q0 -106.5 14.5 -201t50.5 -187.5t107.5 -148.5t172 -55.5 t172 55.5t107.5 148.5t50 187.5t14 201t-14 200.5t-50 187.5t-107.5 147.5t-172 54t-172 -54t-107.5 -147.5t-50.5 -187.5t-14.5 -200.5z" />
<glyph unicode="1" d="M305 1092v45q0 18 37 49l219 170q41 31 66 30q29 0 42 -14t13 -55v-1141q0 -70 78 -70h112q27 0 36.5 -6t9.5 -24v-45q0 -18 -9.5 -24.5t-36.5 -6.5h-520q-27 0 -36 6t-9 25v45q0 18 9.5 24t35.5 6h99q39 0 53 13.5t14 50.5v903q0 57 -49 57q-18 0 -61 -33.5t-70 -33.5 q-33 0 -33 29z" />
<glyph unicode="2" d="M90 31v96q0 27 33 63l543 558l37 37q28 28 35 36l28 31q20 23 26.5 34l19.5 31.5t16 36l7.5 38t4.5 44.5q0 119 -105.5 183.5t-228.5 64.5q-68 0 -124 -22.5t-87 -49t-62.5 -49t-54.5 -22.5h-37q-35 0 -35 30q0 45 41 138q18 41 118 67.5t192 26.5q106 0 195 -17.5 t169 -57.5t125 -117.5t45 -186.5q0 -98 -32.5 -164.5t-110.5 -148.5l-567 -596h335q104 0 168 22.5t82.5 50t43 50t59.5 22.5h30q35 0 35 -29q0 -41 -67 -200q-14 -31 -62 -31h-776q-39 0 -39 31z" />
<glyph unicode="3" d="M59 248q0 31 41 31h35q23 0 58 -28l72 -61q38 -33 112 -60.5t162 -27.5q143 0 243.5 73t100.5 212q0 127 -98.5 206t-282.5 79q-68 0 -87.5 7t-19.5 28v43q0 23 20.5 32t84.5 9q154 0 239.5 60t85.5 181q0 119 -93 185.5t-218 66.5q-72 0 -129 -22.5t-85 -48t-59.5 -48 t-60.5 -22.5h-30q-37 0 -37 39q0 18 21.5 79.5t37.5 73.5q41 31 149.5 49.5t190.5 18.5q115 0 215 -33t175 -118t75 -208q0 -115 -46 -182t-153 -119q256 -84 256 -350q0 -209 -136 -309t-357 -100q-127 0 -251 25.5t-163 68.5q-20 23 -44 81t-24 89z" />
<glyph unicode="4" d="M63 391v94q0 25 41 80l560 770q16 23 22 30t23.5 14t44.5 7h75q45 0 58.5 -15t13.5 -75v-821h131q39 0 39 -31v-53q0 -31 -39 -31h-131v-194q0 -59 51 -60h66q39 0 39 -30v-45q0 -31 -39 -31h-387q-39 0 -39 31v45q0 31 39 30h71q27 0 37.5 12.5t10.5 47.5v194h-648 q-39 0 -39 31zM211 475h539v754h-5z" />
<glyph unicode="5" d="M92 241.5q0 26.5 35 26.5h31q29 0 64.5 -25.5t69.5 -57t100.5 -57.5t148.5 -26q154 0 255 93.5t101 248.5q0 145 -101.5 243.5t-244.5 98.5q-88 0 -147.5 -26.5t-95.5 -53t-70 -26.5h-45q-27 0 -37.5 9t-8.5 36l33 627q2 35 47 34h645q33 0 63 -71.5t30 -104.5 q0 -35 -33 -34h-35q-20 0 -49 24.5t-78 48t-119 23.5h-323l-25 -420q145 53 244 53q213 0 357.5 -124t144.5 -337q0 -223 -141.5 -341.5t-370.5 -118.5q-125 0 -246 25.5t-150 92.5q-49 113 -49 139.5z" />
<glyph unicode="6" d="M88 612q0 147 33 283.5t99.5 252.5t183 185.5t270.5 69.5q78 0 157.5 -24.5t94.5 -45.5q31 -41 48 -94t17 -76q0 -25 -37 -24h-41q-20 0 -45.5 22.5t-51 50t-72 50t-103.5 22.5q-162 0 -276.5 -167t-112.5 -337q172 154 348 154q209 0 342 -133t133 -346t-137 -342 t-352 -129q-170 0 -286 92t-164 229t-48 307zM240 565q0 -209 95 -336t269 -127q139 0 229.5 105.5t90.5 251.5q0 154 -90.5 255t-237.5 101q-145 0 -250.5 -90t-105.5 -160z" />
<glyph unicode="7" d="M88 1196q0 25 35 107.5t51 82.5h821q39 0 39 -30v-101q0 -23 -7 -47t-14 -40.5t-27 -53.5l-30 -57l-493 -1020q-16 -33 -27.5 -43t-36 -10t-46 13t-21.5 38q0 8 121 288l252 585q131 306 149 364h-285q-113 0 -177 -18.5t-81.5 -40t-50.5 -40t-90 -18.5q-51 0 -66.5 10.5 t-15.5 30.5z" />
<glyph unicode="8" d="M66 385q0 281 276 365v4q-203 74 -203 303q0 172 133.5 259t311.5 87t309 -96.5t131 -268.5q0 -111 -48 -176t-153 -121q125 -61 187.5 -141t62.5 -211q0 -203 -141 -304t-352 -101q-133 0 -245 38.5t-190.5 133t-78.5 229.5zM217 391q0 -141 100.5 -215t252 -74t252 74 t100.5 215t-100.5 215t-252 74t-252 -74t-100.5 -215zM291 1038.5q0 -118.5 86 -181t204.5 -62.5t204.5 62.5t86 181t-86 182t-204.5 63.5t-204.5 -63.5t-86 -182z" />
<glyph unicode="9" d="M63 932q0 213 137.5 342t352.5 129q170 0 285.5 -92t164 -229.5t48.5 -307.5q0 -387 -138.5 -588.5t-447.5 -201.5q-156 0 -270 73q-23 14 -53.5 93t-30.5 98q0 35 34 35h35q31 0 65 -29t62.5 -61.5t81.5 -61.5t117 -29q168 0 286 151q105 134 105 310q0 21 -2 43 q-186 -154 -356 -153q-213 0 -344.5 132t-131.5 347zM215 924q0 -154 90 -253.5t238 -99.5q145 0 250.5 88.5t105.5 157.5q0 211 -95 339t-269 128q-139 0 -229.5 -107.5t-90.5 -252.5z" />
<glyph unicode=":" horiz-adv-x="569" d="M178 94q0 41 32 74t75 33t74.5 -33t31.5 -74t-31.5 -73.5t-74.5 -32.5t-75 32.5t-32 73.5zM178 698q0 41 32 74t75 33t74.5 -33t31.5 -74t-31.5 -73.5t-74.5 -32.5t-75 32.5t-32 73.5z" />
<glyph unicode=";" horiz-adv-x="569" d="M170 96q0 45 26.5 75t71.5 30q63 0 95 -43t32 -111q0 -76 -64.5 -183.5t-107.5 -107.5q-18 0 -34.5 11.5t-16.5 25.5q0 10 36 69.5t36 90.5q0 27 -37 63.5t-37 79.5zM178 698q0 41 32 74t75 33t74.5 -33t31.5 -74t-31.5 -73.5t-74.5 -32.5t-75 32.5t-32 73.5z" />
<glyph unicode="&#x3c;" horiz-adv-x="1228" d="M145 416v106l938 432v-114l-807 -371l807 -371v-114z" />
<glyph unicode="=" horiz-adv-x="1228" d="M145 233v107h938v-107h-938zM145 596v106h938v-106h-938z" />
<glyph unicode="&#x3e;" horiz-adv-x="1228" d="M145 -16v114l807 371l-807 371v114l938 -432v-106z" />
<glyph unicode="?" horiz-adv-x="1024" d="M92 1178q0 23 14.5 72.5t34.5 78.5q31 45 127.5 63.5t177.5 18.5q129 0 234.5 -30.5t184.5 -116.5t79 -220q0 -66 -36 -131t-74.5 -104t-109.5 -99.5t-93 -82.5q-59 -59 -82 -98.5t-33 -112.5q-10 -66 -35 -66h-49q-29 0 -29 66q0 88 40 159.5t96 120.5l111 97 q56 47 96 111.5t40 142.5q0 119 -95 181t-218 62q-82 0 -150.5 -34.5t-105.5 -68.5t-43 -34h-51q-31 0 -31 25zM356 94q0 41 32 74t75 33t74.5 -33t31.5 -74t-31.5 -73.5t-74.5 -32.5t-75 32.5t-32 73.5z" />
<glyph unicode="@" horiz-adv-x="1638" d="M100 662q0 330 221.5 539.5t536.5 209.5q287 0 485.5 -175t198.5 -417q0 -207 -101.5 -364.5t-283.5 -157.5q-92 0 -139 53t-47 99h-4q-18 -25 -46 -53.5t-83.5 -59.5t-110.5 -31q-201 0 -201 256q0 61 26 142t74 162t130 137.5t180 56.5q16 0 29.5 -2t26 -6t20.5 -8.5 t17 -12.5t14.5 -12t12.5 -16.5t10 -16.5t10 -18.5t9 -16.5l21 84h141l-137 -536q-6 -22 -6 -43q0 -26 10 -47q18 -39 74 -39q127 0 204.5 137t77.5 291q0 92 -42 186t-116.5 174t-193.5 131t-260 51q-260 0 -428 -183t-168 -517q0 -236 172 -414t445 -178q193 0 411 98 l29 -53q-266 -117 -438 -117q-195 0 -349.5 65.5t-245.5 170t-138.5 221.5t-47.5 230zM666 561q0 -172 139 -172q63 0 122.5 82t92.5 190.5t33 196.5q0 51 -23.5 84t-66.5 33q-100 0 -198.5 -121t-98.5 -293z" />
<glyph unicode="A" horiz-adv-x="1251" d="M-31 31v51q0 33 45 33q16 0 28.5 4t33 30.5t37.5 75.5l321 924q20 66 21 84q0 39 -105 39q-45 0 -45 31v53q0 31 39 30h547q39 0 39 -30v-53q0 -31 -66 -31q-72 0 -71 -37q0 -33 10 -61l352 -949q43 -109 109 -110q37 -4 36 -29v-55q0 -31 -32 -31h-367q-39 0 -39 31v55 q0 29 37 29q106 0 107 49q0 27 -29 102l-80 219q-4 20 -41 21h-477q-18 0 -27 -19l-71 -213q-31 -88 -31 -112q0 -47 90 -47q61 0 61 -35v-49q0 -31 -39 -31h-354q-39 0 -39 31zM393 621h461l-238 632h-4z" />
<glyph unicode="B" horiz-adv-x="1251" d="M27 1303v53q0 31 39 30h602q432 0 432 -362q0 -106 -59.5 -177t-139.5 -102v-4q127 -25 206 -125t79 -227q0 -152 -114 -270.5t-310 -118.5h-678q-39 0 -39 31v53q0 20 12.5 25.5t48.5 5.5q47 0 65.5 16t18.5 64v997q0 49 -18 64.5t-84 15.5q-37 0 -49 5.5t-12 25.5z M356 115h314q94 0 163.5 24.5t104.5 56t54.5 74.5t23.5 67.5t4 45.5q0 49 -14.5 94t-47 91t-100 74t-160.5 30h-342v-557zM356 786h281q147 0 222 68t75 186q0 111 -82 171.5t-246 60.5h-250v-486z" />
<glyph unicode="C" horiz-adv-x="1251" d="M90 672q0 326 189.5 532.5t508.5 206.5q94 0 203 -26.5t125 -57.5q47 -90 47 -174q0 -25 -82 -25q-16 0 -44 26l-58 56q-31 31 -95.5 56.5t-146.5 25.5q-197 0 -332 -158.5t-135 -465.5q0 -254 146.5 -414t361.5 -160q96 0 165 41t112 82t78 41q51 0 66 -7t15 -26 q0 -12 -25.5 -82.5t-45.5 -87.5q-51 -37 -184.5 -58.5t-221.5 -21.5q-299 0 -473 195t-174 502z" />
<glyph unicode="D" horiz-adv-x="1366" d="M61 31v53q0 20 12.5 25.5t49.5 5.5q47 0 65.5 16t18.5 64v997q0 47 -18.5 63.5t-65.5 16.5q-37 0 -49.5 5t-12.5 26v53q0 31 39 30h445q47 0 97 -4t128 -20t145.5 -45t140 -81t125 -123t85 -179.5t32.5 -241.5q0 -123 -39.5 -240.5t-118.5 -221t-219.5 -167t-322.5 -63.5 h-498q-39 0 -39 31zM373 115h243q252 10 377 165.5t125 417.5q0 254 -147.5 414t-405.5 160h-192v-1157z" />
<glyph unicode="E" d="M90 31v53q0 20 12.5 25.5t49.5 5.5q47 0 65.5 16t18.5 64v997q0 47 -18.5 63.5t-65.5 16.5q-37 0 -49.5 5t-12.5 26v53q0 31 39 30h809q37 0 49 -7t21 -29l47 -129q8 -18 8 -41q0 -33 -57 -33q-29 0 -55.5 19.5t-46 43t-68 43t-117.5 19.5h-318v-481h318q51 0 84 29.5 t67 29.5q29 0 40.5 -8t21.5 -33l55 -133q8 -18 8 -51q0 -31 -51 -31q-27 0 -84 41t-135 41h-324v-561h359q86 0 144.5 22.5t80 49t44 49t46.5 22.5h58q27 0 26 -25q0 -8 -12 -40l-66 -162q-12 -31 -63 -31h-889q-39 0 -39 31z" />
<glyph unicode="F" d="M84 31v53q0 20 12.5 25.5t48.5 5.5q47 0 65.5 16t18.5 64v1019q0 57 -112 58q-33 0 -33 41v43q0 18 9 24t34 6h825q37 0 49.5 -7t20.5 -29l47 -129q8 -18 8 -41q0 -33 -57 -33q-29 0 -55.5 19.5t-46 43t-67.5 43t-118 19.5h-338v-481h338q53 0 86 29.5t66 29.5 q29 0 40 -8t21 -33l55 -133q8 -18 9 -51q0 -31 -52 -31q-27 0 -84 41t-135 41h-344v-481q0 -49 19.5 -64.5t77.5 -15.5q53 0 72.5 -6.5t19.5 -30.5v-53q0 -25 -43 -25h-418q-39 0 -39 31z" />
<glyph unicode="G" horiz-adv-x="1366" d="M76 672q0 326 189.5 532.5t508.5 206.5q94 0 202.5 -26.5t125.5 -57.5q47 -90 47 -174q0 -25 -82 -25q-16 0 -44 26l-58 56q-31 31 -95.5 56.5t-146.5 25.5q-197 0 -332 -158.5t-135 -465.5q0 -254 146.5 -414t361.5 -160q80 0 173 32t93 79v254q0 45 -23.5 62.5 t-80.5 17.5q-37 0 -49.5 5t-12.5 25v54q0 31 39 30h387q39 0 39 -30v-54q0 -20 -12 -25t-49 -5q-39 0 -55.5 -16.5t-16.5 -63.5v-279q0 -57 -50 -99t-129 -63.5t-152.5 -32t-141.5 -10.5q-299 0 -473 195t-174 502z" />
<glyph unicode="H" horiz-adv-x="1478" d="M61 31v53q0 20 12.5 25.5t49.5 5.5q47 0 65.5 16t18.5 64v997q0 47 -18.5 63.5t-65.5 16.5q-37 0 -49.5 5t-12.5 26v53q0 31 39 30h379q39 0 39 -30v-53q0 -20 -12 -25.5t-49 -5.5q-47 0 -65.5 -16.5t-18.5 -63.5v-401h733v401q0 47 -18.5 63.5t-65.5 16.5q-37 0 -49 5 t-12 26v53q0 31 38 30h379q39 0 39 -30v-53q0 -20 -12 -25.5t-49 -5.5q-47 0 -65.5 -16.5t-18.5 -63.5v-997q0 -47 18.5 -63.5t65.5 -16.5q37 0 49 -5.5t12 -25.5v-53q0 -31 -39 -31h-379q-39 0 -38 31v53q0 20 12 25.5t49 5.5q47 0 65.5 16t18.5 64v481h-733v-481 q0 -47 18.5 -63.5t65.5 -16.5q37 0 49 -5.5t12 -25.5v-53q0 -31 -39 -31h-379q-39 0 -39 31z" />
<glyph unicode="I" horiz-adv-x="569" d="M55 31v53q0 20 12.5 25.5t49.5 5.5q47 0 65.5 16t18.5 64v997q0 47 -18.5 63.5t-65.5 16.5q-37 0 -49.5 5t-12.5 26v53q0 31 39 30h379q39 0 39 -30v-53q0 -20 -12.5 -25.5t-48.5 -5.5q-47 0 -65.5 -16.5t-18.5 -63.5v-997q0 -47 18 -63.5t66 -16.5q37 0 49 -5.5 t12 -25.5v-53q0 -31 -39 -31h-379q-39 0 -39 31z" />
<glyph unicode="J" horiz-adv-x="569" d="M-281 -199q0 16 16.5 47t33.5 31q8 0 34.5 -9t73.5 -19.5t105 -10.5q135 0 181 56.5t46 171.5v1124q0 49 -19.5 64.5t-76.5 15.5q-53 0 -73 6t-20 31v53q0 25 43 24h418q39 0 39 -30v-53q0 -20 -12 -25.5t-49 -5.5q-47 0 -65.5 -16.5t-18.5 -63.5v-1186 q0 -135 -93.5 -218t-271.5 -83q-72 0 -181.5 28.5t-109.5 67.5z" />
<glyph unicode="K" horiz-adv-x="1251" d="M57 31v53q0 20 12.5 25.5t49.5 5.5q47 0 65.5 16t18.5 64v997q0 47 -18.5 63.5t-65.5 16.5q-37 0 -49.5 5t-12.5 26v53q0 31 39 30h379q39 0 39 -30v-53q0 -20 -12.5 -25.5t-48.5 -5.5q-47 0 -65.5 -16.5t-18.5 -63.5v-490l491 447q45 41 45 74q0 49 -88 49q-27 0 -36 8 t-9 27v49q0 31 39 30h428q39 0 39 -30v-60q0 -10 -12.5 -16t-38 -12t-33.5 -11q-51 -18 -109 -73l-346 -332l541 -805q23 -35 23 -49q0 -10 -26 -29.5t-40 -19.5q-10 0 -21.5 7t-17.5 14t-19 25l-20 25l-553 707l-237 -211v-321q0 -49 19.5 -64.5t76.5 -15.5q53 0 72.5 -6.5 t19.5 -30.5v-53q0 -25 -43 -25h-418q-39 0 -39 31z" />
<glyph unicode="L" horiz-adv-x="1024" d="M66 31v53q0 20 12 25.5t49 5.5q47 0 65.5 16t18.5 64v997q0 47 -18.5 63.5t-65.5 16.5q-37 0 -49 5t-12 26v53q0 31 38 30h379q39 0 39 -30v-53q0 -20 -12 -25.5t-49 -5.5q-47 0 -65.5 -16.5t-18.5 -63.5v-1077h260q86 0 144.5 22.5t80 49t44 49t46.5 22.5h58 q27 0 26 -25q0 -8 -12 -40l-66 -162q-12 -31 -63 -31h-791q-38 0 -38 31z" />
<glyph unicode="M" horiz-adv-x="1705" d="M59 1296v60q0 31 39 30h303q41 0 62.5 -12t32.5 -47l362 -1175h4l359 1175q10 35 31.5 47t62.5 12h291q39 0 39 -30v-60q0 -25 -62 -24q-53 0 -74.5 -19.5t-21.5 -70.5v-987q0 -49 19.5 -64.5t74.5 -15.5q33 0 43 -6.5t10 -24.5v-53q0 -31 -39 -31h-368q-39 0 -39 31v53 q0 18 10 24.5t43 6.5q55 0 74.5 15t19.5 65v1044h-4l-368 -1182q-12 -37 -21.5 -47t-26.5 -10h-118q-16 0 -26.5 10t-20.5 47l-377 1182h-4v-1044q0 -49 19.5 -64.5t74.5 -15.5q33 0 43 -6.5t10 -24.5v-53q0 -31 -39 -31h-368q-39 0 -39 31v53q0 18 10 24.5t43 6.5 q55 0 74.5 15t19.5 65v987q0 51 -21.5 70.5t-74.5 19.5q-62 -1 -62 24z" />
<glyph unicode="N" horiz-adv-x="1478" d="M55 31v53q0 20 12.5 25.5t49.5 5.5q57 0 80.5 17.5t23.5 62.5v997q0 45 -23.5 62.5t-80.5 17.5q-37 0 -49.5 5t-12.5 26v53q0 31 39 30h299q43 0 59.5 -15t53.5 -85l594 -1087h4v993q0 47 -18.5 63.5t-65.5 16.5q-37 0 -49.5 5t-12.5 26v53q0 31 39 30h385q39 0 39 -30 v-53q0 -20 -12 -25.5t-49 -5.5q-57 0 -81 -17.5t-24 -62.5v-1129q0 -63 -67 -63h-103q-39 0 -71 59l-637 1162h-4v-1026q0 -47 18.5 -63.5t65.5 -16.5q37 0 49 -5.5t12 -25.5v-53q0 -31 -39 -31h-385q-39 0 -39 31z" />
<glyph unicode="O" horiz-adv-x="1478" d="M74 694q0 315 179 516t486.5 201t486.5 -200.5t179 -516.5q0 -317 -179 -518t-486.5 -201t-486.5 201t-179 518zM254 694q0 -252 126 -426t359.5 -174t359.5 174t126 426t-126 425t-359.5 173t-359.5 -173t-126 -425z" />
<glyph unicode="P" d="M72 31v53q0 20 12 25.5t49 5.5q47 0 65.5 16t18.5 64v997q0 47 -18.5 63.5t-65.5 16.5q-37 0 -49 5t-12 26v53q0 31 39 30h534q86 0 160 -15t147.5 -53t116.5 -118t43 -192q0 -176 -110.5 -273.5t-319.5 -97.5h-299v-442q0 -49 18.5 -64.5t83.5 -15.5q37 0 49.5 -5.5 t12.5 -25.5v-53q0 -31 -39 -31h-397q-39 0 -39 31zM383 752h231q168 0 250 56t82 216q0 104 -83 176t-257 72h-223v-520z" />
<glyph unicode="Q" horiz-adv-x="1478" d="M74 694q0 315 179 516t486.5 201t486.5 -200.5t179 -516.5q0 -367 -227 -565l149 -123q37 -29 37 -51q0 -12 -45 -59.5t-57 -47.5q-6 0 -10.5 2.5t-10.5 6.5t-10 8l-13.5 14t-17.5 17l-153 147q-133 -68 -308 -68q-307 0 -486 201t-179 518zM254 694q0 -252 126 -426 t359 -174q117 0 207 47l-239 226q-31 29 -31 45t27.5 37.5t44.5 21.5q6 0 11 -1t9 -3t11 -8l13 -10q5 -4 16 -14.5t21 -18.5l232 -191q164 166 164 469q0 252 -126 425t-359.5 173t-359.5 -173t-126 -425z" />
<glyph unicode="R" horiz-adv-x="1251" d="M72 31v53q0 20 12 25.5t49 5.5q47 0 65.5 16t18.5 64v997q0 47 -18.5 63.5t-65.5 16.5q-37 0 -49 5t-12 26v53q0 31 39 30h557q199 0 321.5 -94t122.5 -284q0 -158 -84 -253.5t-246 -111.5l334 -450l46 -62l37 -50l25 -34q13 -18 17 -27.5t4 -17.5q0 -6 -28.5 -29.5 t-40.5 -23.5q-6 0 -11.5 3t-13.5 11t-13 14l-18 21q-12 14 -18 22l-531 615h-188v-440q0 -49 19.5 -64.5t76.5 -15.5q53 0 72.5 -6.5t19.5 -30.5v-53q0 -25 -43 -25h-417q-39 0 -39 31zM383 750h252q174 0 242.5 66.5t68.5 207.5q0 109 -83 178.5t-253 69.5h-227v-522z" />
<glyph unicode="S" d="M82 285q0 33 55 32q49 0 66 -22q80 -98 160.5 -149.5t189.5 -51.5q137 0 237.5 69.5t100.5 201.5q0 102 -80 169.5t-195 105.5l-229 77q-115 39 -194.5 115.5t-79.5 193.5q0 193 130 289t335 96q76 0 195.5 -25.5t154.5 -64.5q25 -25 42 -85t17 -83q0 -27 -63 -27 q-41 0 -54 15q-43 61 -128 106t-183 45q-111 0 -195.5 -65.5t-84.5 -173.5q0 -80 57 -135.5t144 -82.5l188 -63q100 -35 187 -72.5t144.5 -117.5t57.5 -193q0 -147 -83 -243.5t-201 -133.5t-263 -37q-104 0 -233.5 39t-143.5 105q-2 10 -15 50l-25 76q-11 36 -11 40z" />
<glyph unicode="T" d="M-2 1182q0 23 4 32l61 154q8 25 21.5 34t52.5 9t66 -22q25 -25 63 -25h641q57 0 103 25q53 23 85.5 22.5t43 -7.5t10.5 -30q0 -2 -10 -33l-45 -127q-8 -27 -13.5 -36t-17.5 -17t-35 -8q-37 0 -56.5 15.5t-23.5 33t-29.5 32.5t-76.5 15h-193v-1054q0 -49 19.5 -64.5 t76.5 -15.5q53 0 73 -6.5t20 -30.5v-53q0 -25 -43 -25h-457q-43 0 -43 25v53q0 25 19.5 31t72.5 6q57 0 76.5 15t19.5 65v1054h-176q-63 0 -100 -15t-48.5 -33.5t-37 -34t-68.5 -15.5q-55 0 -55 31z" />
<glyph unicode="U" horiz-adv-x="1366" d="M37 1303v53q0 31 39 30h379q39 0 39 -30v-53q0 -20 -12.5 -25.5t-49.5 -5.5q-47 0 -65.5 -16.5t-18.5 -63.5v-737q0 -162 82 -261.5t242 -99.5q154 0 259 90t105 287v721q0 47 -18.5 63.5t-65.5 16.5q-37 0 -49 5t-12 26v53q0 31 39 30h364q39 0 39 -30v-53 q0 -20 -12 -25.5t-49 -5.5q-47 0 -65.5 -16.5t-18.5 -63.5v-739q0 -238 -139.5 -358t-384.5 -120q-209 0 -345.5 117t-136.5 326v774q0 47 -18.5 63.5t-65.5 16.5q-37 0 -49 5.5t-12 25.5z" />
<glyph unicode="V" horiz-adv-x="1251" d="M-45 1298v58q0 31 39 30h383q39 0 39 -30v-60q0 -25 -49 -24q-98 0 -99 -58q0 -18 23 -86l338 -950h4l346 950q23 68 22 91q0 53 -106 53q-41 0 -41 24v60q0 31 39 30h367q39 0 38 -30v-60q0 -25 -30 -24q-84 0 -117 -86l-424 -1141q-14 -45 -53 -45h-113q-39 0 -53 45 l-402 1141q-29 86 -106 86q-45 -1 -45 26z" />
<glyph unicode="W" horiz-adv-x="1705" d="M-43 1305v51q0 31 39 30h358q39 0 39 -30v-53q0 -31 -49 -31q-41 0 -60.5 -14.5t-19.5 -53.5q0 -23 25 -112l254 -891h4l227 893q16 70 17 108q0 70 -89 70q-47 0 -47 28v56q0 31 39 30h344q39 0 39 -30v-56q0 -29 -47 -28q-88 0 -88 -70q0 -39 16 -108l228 -893h4 l256 917q20 78 20 105q0 49 -104 49q-37 0 -37 31v53q0 31 39 30h346q39 0 39 -30v-60q0 -25 -35 -24q-53 0 -78.5 -39t-48.5 -117l-305 -1079q-8 -37 -51 -37h-107q-27 0 -36 12.5t-19 48.5l-209 828h-4l-213 -852q-8 -37 -51 -37h-119q-27 0 -36 12.5t-19 48.5l-309 1098 q-31 113 -107 113q-45 0 -45 33z" />
<glyph unicode="X" horiz-adv-x="1251" d="M-41 31v51q0 33 39 33q78 0 133 73l406 529l-324 440q-43 57 -77 86t-77 29q-45 0 -45 37v47q0 31 41 30h406q41 0 41 -30v-56q0 -29 -49 -28q-31 0 -57.5 -13.5t-26.5 -39.5q0 -31 22 -62l242 -321l221 301q37 51 37 77q0 57 -92 58q-41 0 -41 33v51q0 31 41 30h385 q41 0 41 -30v-60q0 -25 -31 -24q-25 0 -62.5 -21.5t-68.5 -62.5l-342 -457l348 -483q6 -8 19.5 -27.5t18.5 -26l15.5 -20.5t15.5 -18t15 -13.5t16 -12.5l17 -8q10 -5 19 -6t22 -1q53 0 53 -27v-57q0 -31 -39 -31h-416q-39 0 -39 31v41q0 43 37 43q96 0 97 55q0 27 -41 88 l-252 358l-277 -374q-33 -43 -33 -72q0 -27 26 -41t56 -14q23 0 30 -6.5t7 -24.5v-53q0 -31 -39 -31h-399q-39 0 -39 31z" />
<glyph unicode="Y" d="M-12 1305v51q0 31 39 30h387q39 0 39 -30v-43q0 -23 -9.5 -32t-35.5 -9q-100 0 -101 -58q0 -18 31 -79l299 -562l254 545q29 66 29 99q0 23 -27 39t-72 16q-55 0 -55 28v56q0 31 39 30h369q39 0 38 -30v-53q0 -31 -43 -31q-57 0 -86 -62l-411 -897q-41 -86 -41 -123 q0 -76 117 -75q53 0 53 -39v-45q0 -31 -39 -31h-324q-39 0 -39 31q0 43 25 88l106 211q20 41 21 61q0 27 -23 70l-378 706q-57 104 -117 105q-45 0 -45 33z" />
<glyph unicode="Z" d="M37 39v94q0 23 35 68l815 1071h-420q-68 0 -115 -12.5t-70.5 -30t-41 -35.5t-39 -30.5t-51.5 -12.5h-29q-33 0 -33 27q0 12 28.5 93t39.5 97q10 18 67 18h799q43 0 43 -32v-103q0 -8 -2 -16t-10.5 -19.5t-12.5 -17.5t-18 -23.5t-21 -25.5l-788 -1034h461q193 0 284 100 q27 27 41.5 35t49.5 8q53 0 53 -25q0 -12 -37 -116q-33 -88 -55 -105q-16 -12 -39 -12h-889q-29 0 -37 8t-8 31z" />
<glyph unicode="[" horiz-adv-x="681" d="M141 -143v1390q0 84 21.5 111.5t79.5 27.5h319q27 0 36 -9t9 -34v-40q0 -31 -43 -31h-184q-45 0 -65.5 -19.5t-20.5 -72.5v-1256q0 -53 20.5 -72.5t65.5 -19.5h184q43 0 43 -31v-41q0 -25 -9 -34t-36 -9h-319q-57 0 -79 28t-22 112z" />
<glyph unicode="\" horiz-adv-x="569" d="M-152 1411h127l746 -1436h-127z" />
<glyph unicode="]" horiz-adv-x="681" d="M76 -199q0 31 43 31h184q45 0 65.5 19.5t20.5 72.5v1256q0 53 -20.5 72.5t-65.5 19.5h-184q-43 0 -43 31v40q0 25 9 34t36 9h319q57 0 79 -27.5t22 -111.5v-1390q0 -84 -21.5 -112t-79.5 -28h-319q-27 0 -36 9.5t-9 33.5v41z" />
<glyph unicode="^" horiz-adv-x="1228" d="M186 639l375 747h107l374 -747h-127l-301 604l-301 -604h-127z" />
<glyph unicode="_" horiz-adv-x="1024" d="M0 -154h1024v-102h-1024v102z" />
<glyph unicode="`" horiz-adv-x="454" d="M-78 1333q0 33 20.5 49.5t45.5 16.5q43 0 102 -60l291 -290h-82l-311 198q-41 27 -53.5 42t-12.5 44z" />
<glyph unicode="a" horiz-adv-x="1024" d="M76 264q0 100 52 174t145.5 114t202 58.5t237.5 18.5v61q0 76 -62.5 119t-154.5 43q-63 0 -112.5 -19.5t-73 -43t-55.5 -43t-69 -19.5q-49 0 -49 27v90q0 45 119 79.5t246 34.5q362 0 362 -270v-543q0 -39 25 -39q10 0 33.5 1.5t35.5 1.5q35 0 35 -43q0 -35 -56 -60.5 t-106 -25.5q-59 0 -81.5 33.5t-30.5 99.5q-145 -133 -346 -133q-131 0 -214 77.5t-83 206.5zM227 279q0 -166 207 -166q84 0 163 49t116 102v258q-486 -5 -486 -243z" />
<glyph unicode="b" d="M39 1204v56q0 20 29 32l268 135q33 14 39 15q20 0 20 -21v-59q0 -27 -20 -41l-37 -23q-18 -12 -19 -45v-448q158 154 338 153q182 0 298 -136t116 -326q0 -248 -139 -382t-385 -134q-133 0 -269.5 75.5t-136.5 139.5q0 23 13.5 58.5t13.5 74.5v833q0 41 -27 41 q-10 0 -41.5 -14t-40.5 -14q-20 -1 -20 30zM319 360q0 -131 67 -198.5t189 -67.5q166 0 255.5 96.5t89.5 268.5q0 152 -82 259t-234 107q-172 0 -285 -159v-306z" />
<glyph unicode="c" horiz-adv-x="909" d="M66 467q0 213 146 352t380 139q76 0 176 -25.5t100 -70.5q0 -127 -14 -141q-14 -12 -63 -12q-27 0 -65 33.5t-91 67.5t-121 34q-131 0 -208 -111.5t-77 -249.5q0 -158 101.5 -264t257.5 -106q76 0 162 34.5t100 34.5t24.5 -20.5t10.5 -36.5q0 -18 -47 -52t-131 -63.5 t-166 -29.5q-213 0 -344 138t-131 349z" />
<glyph unicode="d" d="M76 440q0 225 136 371.5t349 146.5q123 0 254 -67v270q0 41 -27 41q-10 0 -41.5 -14t-39.5 -14q-20 0 -21 30v56q0 20 29 32l268 135q33 14 39 15q20 0 20 -21v-59q0 -27 -20 -41l-37 -23q-18 -12 -18 -45v-1063q0 -51 14 -67.5t55 -16.5q37 0 50.5 -7t13.5 -27v-41 q0 -31 -39 -31h-195q-39 0 -39 31v106h-4q-129 -158 -329 -157q-195 0 -306.5 129.5t-111.5 330.5zM227 477q0 -111 36 -189.5t89.5 -113.5t94 -48t73.5 -13q109 0 183.5 47t111.5 108v297q0 279 -262 279q-150 0 -238 -97.5t-88 -269.5z" />
<glyph unicode="e" horiz-adv-x="1024" d="M66 465q0 221 143 357t375 136q74 0 151.5 -25.5t138 -85t60.5 -136.5q0 -33 -8 -56.5t-36 -44t-39 -26.5t-56 -29l-508 -254q41 -90 128 -139t189 -49q84 0 157 25.5t117 51t56 25.5q16 0 33.5 -19.5t17.5 -45.5q0 -20 -57.5 -60.5t-156.5 -75t-191 -34.5 q-207 0 -360.5 135t-153.5 350zM229 524q0 -70 17 -108l413 205q45 23 64.5 44t19.5 54q0 61 -57 93t-123 32q-154 0 -244 -100.5t-90 -219.5z" />
<glyph unicode="f" horiz-adv-x="569" d="M72 35v33q0 38 57 38q51 0 65.5 14.5t14.5 69.5v535l-51 -25q-33 -16 -52 -16q-29 0 -28 31v61q0 25 33 39l98 49v281q0 111 76.5 204t244.5 93q117 0 180.5 -26.5t63.5 -69.5v-72q0 -33 -15.5 -44t-64.5 -11q-35 0 -84 58t-100 58q-76 0 -113 -57t-37 -133v-234l68 27 q55 20 70 20q31 0 30 -28v-60q0 -23 -10 -32t-35 -17l-123 -49v-582q0 -55 16.5 -69.5t72.5 -14.5q57 0 57 -36v-35q0 -35 -37 -35h-358q-39 0 -39 35z" />
<glyph unicode="g" horiz-adv-x="1024" d="M68 -178q0 25 14 35t53 10q33 0 55.5 -18.5t45 -49t40.5 -45.5q102 -80 218 -80q49 0 96 6.5t101 23.5t87 57t33 96q0 47 -25.5 71.5t-95.5 24.5h-325q-123 0 -176.5 32.5t-53.5 104.5q0 27 6 48.5t12.5 33.5t26 28.5t26.5 21.5t36.5 22.5t38.5 21.5q-92 68 -136.5 135.5 t-44.5 167.5q0 180 125 284.5t307 104.5q57 0 99 -10q55 90 120.5 128t155.5 38q53 0 68.5 -7t15.5 -34v-76q0 -41 -53 -41q-23 0 -58.5 12.5t-56.5 12.5q-49 0 -116 -59q217 -104 217 -334q0 -172 -125 -271.5t-301 -99.5q-20 0 -51 4t-54.5 9.5t-25.5 5.5q-6 0 -21.5 -7.5 t-31 -27t-15.5 -45.5q0 -70 113 -70h297q254 0 254 -213q0 -113 -75 -184.5t-172 -96t-216 -24.5q-164 0 -293 53q-80 33 -109.5 59.5t-29.5 77.5v64zM252 588q0 -119 75.5 -191.5t184.5 -72.5t184.5 72.5t75.5 191.5t-75.5 191.5t-184.5 72.5t-184.5 -72.5t-75.5 -191.5z " />
<glyph unicode="h" d="M47 1204v56q0 20 29 32l268 135q33 14 39 15q20 0 20 -21v-59q0 -27 -20 -41l-37 -23q-18 -12 -18 -45v-467q102 96 172.5 134t189.5 38q131 0 213 -89t82 -251v-428q0 -53 15.5 -68.5t64.5 -15.5q45 0 45 -40v-35q0 -31 -39 -31h-323q-39 0 -39 31v35q0 41 45 40 q49 0 64.5 15.5t15.5 68.5v428q0 88 -50.5 147.5t-150.5 59.5q-160 0 -305 -157v-478q0 -53 15 -68.5t65 -15.5q45 0 45 -40v-35q0 -31 -39 -31h-324q-39 0 -39 31v35q0 40 45 40q49 0 64.5 15.5t15.5 68.5v971q0 41 -26 41q-10 0 -42 -14t-40 -14q-21 -1 -21 30z" />
<glyph unicode="i" horiz-adv-x="454" d="M25 31v35q0 41 47 40q49 0 64.5 15.5t15.5 68.5v496q0 39 -39 39q-14 0 -39 -8t-31 -8q-18 0 -18 24v45q0 23 20 33l127 62q59 30 85 44.5t48.5 24.5t30.5 13t16 3q33 0 33 -26v-39q0 -27 -29 -45q-33 -20 -43 -34.5t-10 -43.5v-580q0 -53 15.5 -68.5t64.5 -15.5 q45 0 45 -40v-35q0 -31 -39 -31h-326q-38 0 -38 31zM102 1108v115q0 23 13.5 35t60.5 32q86 43 100 43q33 0 33 -24v-115q0 -27 -16.5 -39t-71.5 -41q-82 -43 -96 -43q-23 0 -23 37z" />
<glyph unicode="j" horiz-adv-x="454" d="M-260 -326v74q0 33 12 43t49 10q43 0 66.5 -19.5t30 -44t33 -44t75.5 -19.5q70 0 113 37t43 105v870q0 39 -39 39q-12 0 -37 -8t-33 -8q-18 0 -18 24v45q0 23 20 33l127 62q59 30 85 44.5t48.5 24.5t30.5 13t16 3q33 0 33 -26v-39q0 -27 -28 -45q-33 -20 -43.5 -34.5 t-10.5 -43.5v-965q0 -98 -77.5 -167.5t-208.5 -69.5q-104 0 -195.5 27.5t-91.5 78.5zM113 1108v115q0 23 13 35t60 32q86 43 101 43q33 0 32 -24v-115q0 -27 -16 -39t-72 -41q-84 -43 -96 -43q-22 0 -22 37z" />
<glyph unicode="k" horiz-adv-x="1024" d="M53 1204v56q0 20 29 32l268 135q33 14 39 15q20 0 21 -21v-59q0 -27 -21 -41l-37 -23q-18 -12 -18 -45v-780l284 242q43 37 44 73q0 43 -61.5 43t-61.5 31v45q0 31 39 31h378q39 0 39 -31v-47q0 -23 -39 -33q-53 -10 -75 -28l-246 -209l321 -496q43 -66 43 -67 q0 -10 -21.5 -28.5t-33.5 -18.5q-25 0 -43 22l-389 473l-178 -153v-132q0 -51 14 -67.5t55 -16.5q37 0 50.5 -7t13.5 -27v-41q0 -31 -39 -31h-332q-39 0 -39 31v35q0 41 45 40q49 0 64.5 15.5t15.5 68.5v971q0 41 -26 41q-10 0 -42 -14t-40 -14q-21 -1 -21 30z" />
<glyph unicode="l" horiz-adv-x="454" d="M23 1204v56q0 20 28 32l268 135q33 14 39 15q20 0 21 -21v-59q0 -27 -21 -41l-36 -23q-18 -12 -19 -45v-1063q0 -53 15.5 -68.5t64.5 -15.5q45 0 45 -40v-35q0 -31 -39 -31h-326q-39 0 -38 31v35q0 41 47 40q49 0 64.5 15.5t15.5 68.5v971q0 41 -27 41q-10 0 -42 -14 t-40 -14q-20 -1 -20 30z" />
<glyph unicode="m" horiz-adv-x="1820" d="M41 31v41q0 34 57 34q55 0 71.5 11.5t16.5 48.5v508q0 47 -39 47q-18 0 -44.5 -10.5t-32.5 -10.5q-25 0 -25 23v37q0 29 25 45l188 139q18 14 39 14q41 0 41 -34v-131q104 90 177 127.5t183 37.5q195 0 277 -174q98 90 180 132t195 42q123 0 217 -75.5t94 -245.5v-471 q0 -37 13.5 -48.5t60.5 -11.5q57 0 57 -34v-43q0 -29 -37 -29h-338q-37 0 -37 33v39q0 35 58 34q43 0 57 11.5t14 48.5v473q0 186 -213 186q-94 0 -173 -48t-124 -99v-512q0 -37 15.5 -48.5t66.5 -11.5q57 0 58 -30v-51q0 -25 -39 -25h-348q-39 0 -39 33v41q0 32 57 32 q47 0 62.5 11.5t15.5 48.5v461q0 199 -203 198q-164 0 -307 -155v-504q0 -37 17.5 -48.5t58.5 -11.5q57 0 57 -36v-35q0 -35 -43 -35h-348q-39 0 -39 31z" />
<glyph unicode="n" d="M49 735v41q0 12 25 35l164 133q16 14 47 14q43 0 43 -30v-142q102 96 172.5 134t189.5 38q131 0 213 -89t82 -251v-428q0 -53 15.5 -68.5t64.5 -15.5q45 0 45 -40v-35q0 -31 -39 -31h-323q-39 0 -39 31v35q0 41 45 40q49 0 64.5 15.5t15.5 68.5v428q0 88 -50.5 147.5 t-150.5 59.5q-160 0 -305 -157v-478q0 -53 15 -68.5t65 -15.5q45 0 45 -40v-35q0 -31 -39 -31h-324q-39 0 -39 31v35q0 41 45 40q49 0 64.5 15.5t15.5 68.5v500q0 37 -37 37q-12 0 -36.5 -9t-30.5 -9q-23 -1 -23 26z" />
<glyph unicode="o" d="M74 469q0 211 143 350t352 139t352.5 -139t143.5 -350t-143.5 -350t-352.5 -139t-352 139t-143 350zM238 479q0 -143 101 -268t247 -125q147 0 231 92t84 248q0 166 -98 296t-256 130q-135 0 -222 -102.5t-87 -270.5z" />
<glyph unicode="p" d="M37 -360q0 20 13 27t50 7q41 0 55.5 16.5t14.5 67.5v947q0 29 -27 28q-8 0 -34.5 -11t-34.5 -11q-27 0 -27 26v45q0 18 25 37l153 117q29 23 56 22q41 0 41 -36v-131q168 168 329 167q195 0 309.5 -143t114.5 -344q0 -205 -136 -348t-339 -143q-172 0 -278 65v-287 q0 -51 15 -67.5t64 -16.5q47 0 61.5 -7t14.5 -27v-41q0 -31 -39 -31h-362q-39 0 -39 31v41zM322 647v-303q0 -117 76.5 -183.5t187.5 -66.5q55 0 111.5 19.5t108.5 58.5t85 112.5t33 172.5q0 156 -84 262t-232 106q-82 0 -157.5 -51t-128.5 -127z" />
<glyph unicode="q" d="M76 457q0 221 141 361t361 140q43 0 124.5 -12t122.5 -12q33 0 90.5 12t61.5 12q51 0 51 -53q0 -16 -24.5 -69.5t-24.5 -94.5v-983q0 -51 14.5 -67.5t55.5 -16.5q37 0 50 -7t13 -27v-41q0 -31 -39 -31h-354q-39 0 -39 31v41q0 20 14.5 27t61.5 7q43 0 57 16.5t14 67.5 v371q-139 -150 -327 -149q-201 0 -312.5 135t-111.5 342zM227 465q0 -152 81 -252t222 -100q94 0 175 48t126 115v267q0 301 -268 301q-160 0 -248 -108.5t-88 -270.5z" />
<glyph unicode="r" horiz-adv-x="681" d="M55 31v41q0 20 13.5 27t50.5 7q41 0 55 16.5t14 67.5v486q0 45 -28 45q-8 0 -29.5 -9.5t-34.5 -9.5q-33 0 -33 29v47q0 25 25 41l158 113q37 27 61 26q33 0 33 -26v-90q49 39 79 58.5t83 38.5t110 19q41 0 52.5 -25.5t11.5 -131.5q0 -43 -60 -43q-39 0 -67.5 17.5 t-56.5 17.5q-18 0 -42 -11.5t-37 -21.5l-41 -33q-28 -23 -32 -27v-510q0 -55 16.5 -69.5t75.5 -14.5q37 0 50.5 -7t13.5 -27v-41q0 -31 -39 -31h-363q-39 0 -39 31z" />
<glyph unicode="s" horiz-adv-x="909" d="M86 100v82q0 23 12.5 30t44.5 7q45 0 80 -20.5t56.5 -46t66.5 -46t111 -20.5q88 0 157.5 40t69.5 124q0 55 -43 92t-107.5 53.5t-139.5 38t-139.5 46t-107.5 78.5t-43 134q0 133 107.5 199.5t249.5 66.5q113 0 216 -35.5t103 -74.5v-80q0 -25 -13 -33t-60 -8 q-20 0 -45 19.5t-48.5 43t-70.5 43t-107 19.5q-78 0 -129 -37t-51 -110q0 -63 59.5 -99.5t145.5 -55t171 -42t144.5 -81.5t59.5 -155q0 -82 -35 -141t-95.5 -91t-126 -46t-139.5 -14q-100 0 -184 21.5t-127 47.5t-43 51z" />
<glyph unicode="t" horiz-adv-x="569" d="M43 715v69q0 23 29 35l94 43v246q0 47 39 70l28 18q25 16 54 16q31 0 30 -38v-275l107 47q33 12 39 12q33 0 33 -32v-52q0 -25 -27 -36l-152 -72v-573q0 -37 18.5 -64t55.5 -27q27 0 68 11.5t43 11.5q14 0 26.5 -21.5t12.5 -35.5q0 -37 -79 -62.5t-124 -25.5 q-88 0 -130 40.5t-42 139.5v563l-37 -18q-51 -25 -66 -25q-20 0 -20 35z" />
<glyph unicode="u" d="M35 733v45q0 23 20 33l127 62q59 30 85 44.5t48.5 24.5t30.5 13t16 3q33 0 33 -26v-39q0 -27 -28 -45q-33 -20 -43.5 -34.5t-10.5 -43.5v-453q0 -100 52.5 -152t144.5 -52q98 0 182 55t127 113v405q0 39 -39 39q-14 0 -38.5 -8t-30.5 -8q-18 0 -19 24v45q0 23 21 33 l127 62q59 30 84.5 44.5t48 24.5t31 13t16.5 3q33 0 33 -26v-39q0 -27 -29 -45q-33 -20 -43 -34.5t-10 -43.5v-580q0 -53 15 -68.5t65 -15.5q45 0 45 -40v-35q0 -31 -39 -31h-193q-43 0 -43 47v90q-100 -84 -177 -120.5t-183 -36.5q-145 0 -222 90t-77 235v381q0 39 -39 39 q-12 0 -37 -8t-33 -8q-18 -1 -18 24z" />
<glyph unicode="v" horiz-adv-x="1024" d="M-8 858v49q0 31 39 31h305q39 0 39 -31v-41q0 -35 -60 -35q-57 0 -57 -34q0 -27 25 -88l227 -547h4l229 543q25 59 25 86q0 18 -21.5 29t-52.5 11q-43 0 -43 31v45q0 31 39 31h305q39 0 39 -31v-47q0 -29 -39 -29q-23 0 -49 -15t-39 -46l-305 -729q-10 -23 -23.5 -32 t-48.5 -9h-55q-31 0 -43 7t-22 34l-318 756q-14 35 -61 34q-39 0 -39 27z" />
<glyph unicode="w" horiz-adv-x="1593" d="M-12 860v47q0 31 39 31h315q39 0 39 -31v-41q0 -35 -41 -35q-76 0 -76 -49q0 -33 27 -102l201 -528h4l200 528q27 70 27 102q0 49 -76 49q-41 0 -41 35v41q0 31 39 31h311q39 0 39 -31v-41q0 -35 -41 -35q-76 0 -75 -49q0 -33 26 -102l201 -528h4l201 528q27 70 26 102 q0 49 -75 49q-41 0 -41 35v41q0 31 39 31h301q39 0 38 -31v-47q0 -29 -43 -29q-55 0 -73 -57l-271 -723q-12 -31 -22 -41t-33 -10h-90q-43 0 -61 51l-207 537l-207 -537q-12 -31 -23.5 -41t-33.5 -10h-99q-33 0 -51 49l-285 727q-23 55 -69 55q-43 0 -43 29z" />
<glyph unicode="x" horiz-adv-x="1024" d="M12 31v43q0 18 9.5 22t24.5 2t44 13.5t60 50.5l278 319l-276 307q-18 20 -42 30.5t-40.5 11.5t-27.5 10.5t-11 31.5v35q0 31 39 31h331q39 0 39 -31v-47q0 -29 -45 -29q-61 0 -61 -45q0 -16 26 -49l154 -176l164 187q20 27 20 47q0 37 -61 36q-53 0 -53 27v49q0 31 39 31 h317q39 0 39 -31v-39q0 -23 -16.5 -28.5t-51 -20t-65.5 -49.5l-248 -283l270 -317q23 -27 52.5 -42t51 -17t36 -10.5t14.5 -24.5v-45q0 -31 -39 -31h-356q-39 0 -39 31v51q0 14 10 19t43 5q66 0 66 44q0 23 -23 49l-174 198l-164 -184q-31 -35 -31 -68q0 -39 47 -39 q55 0 56 -34v-41q0 -31 -39 -31h-328q-39 0 -39 31z" />
<glyph unicode="y" horiz-adv-x="1024" d="M-23 864v43q0 31 39 31h316q39 0 39 -31v-43q0 -33 -45 -33q-31 0 -49.5 -12t-18.5 -28q0 -27 18 -72l252 -549l236 561q14 31 14 64q0 37 -80 36q-31 0 -30 31v45q0 31 39 31h297q39 0 38 -31v-47q0 -20 -14 -26.5t-34.5 -6.5t-46 -20.5t-42.5 -63.5l-352 -862 q-37 -92 -37 -141q0 -29 28.5 -47.5t78.5 -18.5q35 0 45 -5t10 -23v-47q0 -31 -39 -31h-272q-39 0 -39 31v67q0 23 28 96l93 238l-347 764q-16 35 -38.5 52.5t-41 17.5t-32 6t-13.5 24z" />
<glyph unicode="z" horiz-adv-x="909" d="M51 31v75q0 23 41 72l569 653h-294q-72 0 -128.5 -51t-103.5 -51q-35 0 -45 8t-10 37v133q0 18 9 24.5t36 6.5h641q27 0 36 -6t9 -25v-80q0 -25 -41 -71l-559 -650h307q63 0 104.5 17.5t56.5 39t42 39t63.5 17.5t46 -7t9.5 -30v-151q0 -18 -9.5 -24.5t-35.5 -6.5h-699 q-27 0 -36 6.5t-9 24.5z" />
<glyph unicode="{" horiz-adv-x="681" d="M88 555q92 27 124 77t32 150v353q0 164 69.5 220t212.5 56v-31q-131 -31 -131 -235v-332q0 -117 -38 -174t-160 -82v-4q123 -23 160.5 -79t37.5 -175v-334q0 -203 131 -233v-31q-143 0 -212.5 55.5t-69.5 220.5v351q0 102 -32 152t-124 75z" />
<glyph unicode="|" horiz-adv-x="454" d="M174 -512v2048h107v-2048h-107z" />
<glyph unicode="}" horiz-adv-x="681" d="M156 -268q131 31 131 233v334q0 119 37.5 175t160.5 79v4q-123 25 -160.5 82t-37.5 174v332q0 205 -131 235v31q143 0 212.5 -56.5t69.5 -219.5v-353q0 -100 32 -150t124 -77q-92 -25 -124 -75t-32 -152v-351q0 -166 -69.5 -221t-212.5 -55v31z" />
<glyph unicode="~" horiz-adv-x="1228" d="M141 422q94 174 256 174q72 0 228 -66q16 -6 55 -23.5t59.5 -25.5t47 -16t47.5 -8q39 0 74.5 24.5t55 50t50.5 72.5l73 -86q-41 -55 -67.5 -86t-77.5 -60.5t-111 -29.5q-86 0 -208 68q-127 72 -235.5 71.5t-172.5 -147.5z" />
<glyph unicode="&#xa1;" horiz-adv-x="569" d="M178 885q0 41 32 73.5t75 32.5t74.5 -32.5t31.5 -73.5t-31.5 -74t-74.5 -33t-75 33t-32 74zM199 -356l39 927q0 49 34 50h33q31 0 35 -50l43 -929q2 -25 -11.5 -37.5t-39.5 -12.5h-78q-31 0 -44 11.5t-11 40.5z" />
<glyph unicode="&#xa2;" d="M98 709q0 168 90.5 287.5t264.5 179.5v172q0 27 28 26h64q23 0 22 -22v-162q96 -2 193 -23q49 -10 64.5 -22t15.5 -41v-98q0 -33 -60 -33q-27 0 -56.5 25.5t-75.5 51t-111 25.5q-125 0 -206 -93t-81 -226q0 -178 97 -288t267 -110q45 0 104.5 19.5t101.5 38t48 18.5 q16 0 28.5 -17.5t12.5 -35.5q0 -51 -116.5 -103.5t-190.5 -52.5q-6 0 -17.5 1t-17.5 1v-196q0 -31 -26 -31h-58q-31 0 -30 33v209q-154 23 -254.5 153t-100.5 314z" />
<glyph unicode="&#xa3;" d="M18 31v57q0 27 27 27q59 0 76.5 14t30.5 82l94 457h-154q-27 0 -26 24v64q0 27 30 26h174l43 201q45 211 151.5 319.5t309.5 108.5q66 0 135.5 -18.5t87.5 -61.5q45 -115 45 -147q0 -23 -7 -30t-25 -7h-49q-12 0 -35 22.5t-46.5 50t-67.5 50t-93 22.5q-190 0 -258 -374 l-25 -136h350q29 0 29 -24v-60q0 -31 -27 -30h-378l-113 -553h379q86 0 150.5 23.5t92 51t55 51t50.5 23.5h39q31 0 31 -28q0 -41 -60 -179q-25 -57 -61 -57h-918q-37 0 -37 31z" />
<glyph unicode="&#xa4;" d="M57 289l115 117q-111 135 -111 311t111 311l-115 115l84 86l117 -115q129 111 311.5 111t311.5 -111l114 115l86 -86l-114 -115q111 -135 110.5 -311t-110.5 -311l112 -117l-84 -86l-114 116q-129 -111 -311.5 -110.5t-311.5 110.5l-117 -116zM186 716.5 q0 -157.5 112 -274t271.5 -116.5t271 116.5t111.5 274t-111.5 274.5t-271 117t-271.5 -117t-112 -274.5z" />
<glyph unicode="&#xa5;" d="M-43 1305v61q0 20 33 20h401q31 0 31 -24v-62q0 -16 -11.5 -22t-48.5 -6q-39 0 -62.5 -16.5t-23.5 -41.5q0 -18 46 -104l278 -520h12l240 512q37 78 37 104q0 66 -115 66q-39 0 -39 31v53q0 31 37 30h381q29 0 29 -24v-62q0 -29 -41 -28q-61 0 -103 -92l-147 -344h190 q39 0 39 -31v-53q0 -31 -39 -31h-252l-53 -131h213q39 0 39 -31v-53q0 -31 -39 -31h-272l-43 -88q-27 -55 -39 -83t-23.5 -60.5t-11.5 -53.5q0 -76 107 -75q39 0 51 -7.5t12 -27.5v-45q0 -35 -39 -35h-323q-39 0 -39 39q0 43 75.5 184.5t75.5 159.5q0 37 -22 78l-9 14h-278 q-39 0 -39 31v53q0 31 39 31h209l-62 131h-239q-39 0 -39 31v53q0 31 39 31h168l-164 329q-23 43 -60.5 75t-72.5 34q-33 0 -33 31z" />
<glyph unicode="&#xa6;" horiz-adv-x="454" d="M174 -358v716h107v-716h-107zM174 666v716h107v-716h-107z" />
<glyph unicode="&#xa7;" horiz-adv-x="909" d="M74 619q0 215 233 282l-29 29q-24 23 -33 33l-29 31q-19 22 -28.5 38.5t-20.5 39t-15.5 46t-4.5 47.5q0 127 94.5 186.5t229.5 59.5q74 0 181.5 -22.5t117.5 -53.5q35 -100 35 -145q0 -25 -27 -25h-73q-12 0 -31 22l-40 46q-22 25 -71 46t-112 21q-176 0 -177 -143 q0 -43 57.5 -102.5t139.5 -121.5l165 -131q83 -69 140.5 -150t57.5 -154q0 -199 -238 -256q12 -14 56 -58.5t61.5 -66t36 -65.5t18.5 -93q0 -131 -97.5 -186.5t-238.5 -55.5q-70 0 -161 19.5t-119 60.5q-12 16 -25.5 67.5t-13.5 72.5q0 27 37 26h59q18 0 37.5 -21.5t39 -46 t64.5 -46t109 -21.5q182 0 182 133q0 53 -89 141t-194.5 169t-194.5 179.5t-89 168.5zM197 662q0 -47 21.5 -78t82.5 -82l76 -68l59 -53l40 -35q19 -16 28.5 -22.5t13.5 -6.5q33 0 72 10.5t80 52.5t41 109q0 51 -24.5 84t-100.5 95q-197 164 -203 163q-14 0 -54 -14t-86 -56 t-46 -99z" />
<glyph unicode="&#xa8;" horiz-adv-x="454" d="M-74 1176q0 41 31 59l84 49q33 18 55.5 18.5t22.5 -36.5v-84q0 -29 -10 -41q-10 -14 -76 -50t-84 -36q-23 0 -23 37v84zM336 1176q0 41 31 59l84 49q33 18 55 18.5t22 -36.5v-84q0 -29 -10 -41q-10 -14 -75.5 -50t-84.5 -36q-23 0 -22 37v84z" />
<glyph unicode="&#xa9;" horiz-adv-x="1638" d="M117 692q0 297 205.5 508t496.5 211q293 0 498 -210t205 -509q0 -297 -205 -507t-498 -210q-291 0 -496.5 210t-205.5 507zM223 692q0 -254 177.5 -444.5t418.5 -190.5q244 0 420 190.5t176 444.5t-176 445.5t-420 191.5t-420 -191.5t-176 -445.5zM424 709 q0 150 119 275.5t331 125.5q94 0 177.5 -24.5t83.5 -49.5v-151h-33q-6 76 -62.5 130t-173.5 54q-145 0 -222 -96t-77 -254q0 -174 79 -277.5t237 -103.5q178 0 254 178h30l-34 -154q-6 -25 -98.5 -45t-172.5 -20q-193 0 -315.5 101.5t-122.5 310.5z" />
<glyph unicode="&#xaa;" horiz-adv-x="614" d="M4 995q0 86 80 137.5t186 65.5q100 14 148 14v14q0 54 -29 78q-33 26 -100.5 25.5t-119.5 -29t-79 -28.5q-20 0 -27.5 5t-7.5 21v43q0 31 77 50.5t149 19.5q256 0 256 -162v-325q0 -27 12 -27q6 0 19.5 1t21.5 1q23 0 22 -18q0 -27 -31.5 -42.5t-66.5 -15.5 q-41 0 -57.5 20.5t-22.5 59.5q-96 -80 -225 -80q-86 0 -145.5 48t-59.5 124zM119 1004q0 -98 133 -99q61 0 113.5 23.5t56.5 60.5v148q-61 -6 -78 -7q-225 1 -225 -126z" />
<glyph unicode="&#xab;" horiz-adv-x="909" d="M72 481l247 283q29 33 60 33h61q31 0 31 -19q0 -14 -10 -26l-191 -271l189 -260q12 -18 12 -31q0 -25 -25 -24h-63q-33 0 -53 22zM426 481l248 283q29 33 59 33h62q31 0 30 -19q0 -14 -10 -26l-190 -271l188 -260q12 -18 12 -31q0 -25 -24 -24h-64q-33 0 -53 22z" />
<glyph unicode="&#xac;" horiz-adv-x="1228" d="M145 596v106h938v-501h-106v395h-832z" />
<glyph unicode="&#xad;" horiz-adv-x="681" d="M106 440v60q0 29 29 28h410q31 0 30 -30v-60q0 -29 -34 -28h-404q-31 -1 -31 30z" />
<glyph unicode="&#xae;" horiz-adv-x="1638" d="M117 690q0 299 205.5 510t496.5 211q293 0 498 -211t205 -510q0 -295 -205 -505t-498 -210q-291 0 -496.5 210t-205.5 505zM223 690q0 -252 177.5 -442.5t418.5 -190.5q244 0 420 190.5t176 442.5q0 256 -175 447.5t-421 191.5q-244 0 -420 -191.5t-176 -447.5zM485 317 v35q70 6 86.5 16.5t16.5 51.5v581q0 29 -17.5 39.5t-85.5 16.5v28h361q102 0 173 -48t71 -140q0 -78 -47.5 -135t-122.5 -82l120 -168q98 -133 166 -176v-19h-123q-20 0 -39.5 14.5t-43 47.5t-45.5 68l-59 98q-38 61 -75 114h-108v-247q0 -33 17.5 -43.5t84.5 -16.5v-35 h-330zM713 694h96q76 0 116 52.5t40 142.5q0 84 -45.5 123t-116.5 39h-90v-357z" />
<glyph unicode="&#xaf;" horiz-adv-x="454" d="M-90 1130v107h637v-107h-637z" />
<glyph unicode="&#xb0;" horiz-adv-x="819" d="M117 1110q0 123 85 208t207.5 85t207.5 -85t85 -208t-85 -209t-207.5 -86t-207.5 86t-85 209zM213 1110q0 -92 53 -150.5t143.5 -58.5t143.5 58.5t53 150.5t-53 149.5t-143.5 57.5t-143.5 -57.5t-53 -149.5z" />
<glyph unicode="&#xb1;" horiz-adv-x="1228" d="M145 0v106h938v-106h-938zM145 506v106h416v326h107v-326h415v-106h-415v-326h-107v326h-416z" />
<glyph unicode="&#xb2;" horiz-adv-x="681" d="M35 592v41q0 23 26 49l390 369q43 39 57 64.5t14 68.5q0 57 -58 89t-142 32q-74 0 -118 -20.5t-68.5 -41t-49.5 -20.5h-14q-27 0 -27 18q0 25 19.5 69t50.5 56q94 37 207 37q51 0 103 -10.5t103.5 -34t84 -71.5t32.5 -111q0 -100 -82 -175l-385 -342h223q57 0 93 9.5 t46.5 21.5t27 21.5t38.5 9.5h17q25 0 24 -19q0 -16 -24.5 -78.5t-42.5 -62.5h-512q-20 0 -26.5 6.5t-6.5 24.5z" />
<glyph unicode="&#xb3;" horiz-adv-x="681" d="M10 727q0 23 23 23h26q23 0 51.5 -25t79 -50.5t125.5 -25.5q96 0 164 38t68 106q0 158 -232 157q-53 0 -69.5 7.5t-16.5 23.5v41q0 16 14.5 21.5t61.5 5.5q203 0 203 131q0 55 -60.5 90t-140.5 35q-51 0 -89 -12.5t-53 -28t-34.5 -27.5t-40.5 -12h-20q-25 0 -25 22 q0 82 55.5 119t206.5 37q125 0 224.5 -54.5t99.5 -160.5q0 -70 -35 -110t-119 -68v-4q193 -49 193 -209q0 -125 -95.5 -185.5t-250.5 -60.5q-205 0 -250 57q-64 74 -64 119z" />
<glyph unicode="&#xb4;" horiz-adv-x="454" d="M74 1049l291 290q59 59 102 60q25 0 45 -16.5t20 -49.5q0 -29 -12 -44t-53 -42l-311 -198h-82z" />
<glyph unicode="&#xb5;" d="M35 733v45q0 23 20 33l127 62q59 30 85 44.5t48.5 24.5t30.5 13t16 3q33 0 33 -26v-39q0 -27 -28 -45q-33 -20 -43.5 -34.5t-10.5 -43.5v-453q0 -100 52.5 -152t144.5 -52q98 0 182 55t127 113v405q0 39 -39 39q-14 0 -38.5 -8t-30.5 -8q-18 0 -19 24v45q0 23 21 33 l127 62q59 30 84.5 44.5t48 24.5t31 13t16.5 3q33 0 33 -26v-39q0 -27 -29 -45q-33 -20 -43 -34.5t-10 -43.5v-580q0 -53 15 -68.5t65 -15.5q45 0 45 -40v-35q0 -31 -39 -31h-193q-43 0 -43 47v90q-100 -84 -177 -120.5t-183 -36.5q-88 0 -148 34v-399q0 -47 -43 -47h-194 q-39 0 -39 31v34q0 41 45 41q49 0 64.5 15.5t15.5 68.5v928q0 39 -39 39q-12 0 -37 -8t-33 -8q-18 -1 -18 24z" />
<glyph unicode="&#xb6;" horiz-adv-x="1228" d="M98 981q0 209 100.5 307t329.5 98h508v-77h-168v-1688h-118v1688h-125v-1688h-119v924q-203 0 -305.5 118.5t-102.5 317.5z" />
<glyph unicode="&#xb7;" horiz-adv-x="569" d="M178 469q0 41 32 73.5t75 32.5t74.5 -32.5t31.5 -73.5t-31.5 -74t-74.5 -33t-75 33t-32 74z" />
<glyph unicode="&#xb8;" horiz-adv-x="454" d="M14 -399l29 63q63 -23 123 -22q119 0 119 94q0 70 -105 69q-33 0 -55 -12l-21 14l86 201h72l-53 -133q41 8 59 8q70 0 120 -36.5t50 -104.5q0 -92 -74.5 -133t-175.5 -41q-88 0 -174 33z" />
<glyph unicode="&#xb9;" horiz-adv-x="681" d="M199 1223v16q0 14 30 39l133 96q25 18 54 19q37 0 37 -39v-668q0 -41 32 -41h78q33 -4 33 -22v-39q0 -23 -31 -23h-342q-23 0 -22 23v39q0 23 30 22h66q33 0 33 41v516q0 37 -23 37q-16 0 -43.5 -20.5t-44.5 -20.5q-20 0 -20 25z" />
<glyph unicode="&#xba;" horiz-adv-x="684" d="M10 1118q0 133 96.5 213t235.5 80t235.5 -80t96.5 -213q0 -135 -96.5 -215t-235.5 -80t-235.5 80t-96.5 215zM125 1118q0 -80 62.5 -146.5t154.5 -66.5q217 0 217 213q0 80 -62.5 145.5t-154.5 65.5t-154.5 -65.5t-62.5 -145.5z" />
<glyph unicode="&#xbb;" horiz-adv-x="909" d="M84 190q0 12 12 31l189 260l-191 271q-10 12 -10 26q0 18 31 19h61q31 0 60 -33l247 -283l-258 -293q-20 -23 -53 -22h-63q-25 -1 -25 24zM438 190q0 12 13 31l188 260l-190 271q-10 12 -11 26q0 18 31 19h61q31 0 60 -33l248 -283l-258 -293q-20 -23 -54 -22h-63 q-25 -1 -25 24z" />
<glyph unicode="&#xbc;" horiz-adv-x="1708" d="M100 1223v16q0 14 31 39l133 96q25 18 53 19q37 0 37 -39v-668q0 -41 33 -41h78q33 -4 33 -22v-39q0 -23 -31 -23h-342q-23 0 -23 23v39q0 23 31 22h66q33 0 32 41v516q0 37 -22 37q-16 0 -44 -20.5t-44 -20.5q-21 0 -21 25zM342 -16l909 1419h123l-909 -1419h-123z M911 246v47q0 12 31 51l348 442q37 45 72 45h78q37 0 37 -32v-486h86q25 0 24 -20v-53q0 -25 -24 -25h-86v-106q0 -25 28 -25h49q23 0 23 -18v-41q0 -25 -23 -25h-247q-31 0 -31 23v34q0 27 24 27h50q29 0 28 33v98h-438q-29 0 -29 31zM1036 313h342v424h-4z" />
<glyph unicode="&#xbd;" horiz-adv-x="1708" d="M100 1223v16q0 14 31 39l133 96q25 18 53 19q37 0 37 -39v-668q0 -41 33 -41h78q33 -4 33 -22v-39q0 -23 -31 -23h-342q-23 0 -23 23v39q0 23 31 22h66q33 0 32 41v516q0 37 -22 37q-16 0 -44 -20.5t-44 -20.5q-21 0 -21 25zM242 -16l909 1419h123l-909 -1419h-123z M975 31v41q0 23 26 49l390 368q43 39 57 65t14 69q0 57 -58 88.5t-142 31.5q-74 0 -118 -20.5t-68.5 -40.5t-49.5 -20h-14q-27 0 -27 18q0 25 19.5 69t50.5 56q94 37 207 37q51 0 103 -10.5t103.5 -34t84 -71.5t32.5 -112q0 -100 -82 -174l-385 -342h223q57 0 93 9.5 t46.5 21.5t27 21.5t38.5 9.5h17q25 0 24 -19q0 -16 -24.5 -78.5t-42.5 -62.5h-512q-20 0 -26.5 6.5t-6.5 24.5z" />
<glyph unicode="&#xbe;" horiz-adv-x="1708" d="M35 727q0 23 22 23h27q23 0 51.5 -25t78.5 -50.5t126 -25.5q96 0 163.5 38t67.5 106q0 158 -231 157q-53 0 -69.5 7.5t-16.5 23.5v41q0 16 14.5 21.5t61.5 5.5q203 0 202 131q0 55 -60 90t-140 35q-51 0 -89 -12.5t-53.5 -28t-35 -27.5t-39.5 -12h-21q-25 0 -24 22 q0 82 55 119t207 37q125 0 224 -54.5t99 -160.5q0 -70 -34.5 -110t-118.5 -68v-4q193 -49 192 -209q0 -125 -95 -185.5t-251 -60.5q-205 0 -250 57q-63 74 -63 119zM434 -16l909 1419h123l-909 -1419h-123zM999 246v47q0 12 31 51l348 442q37 45 72 45h78q37 0 37 -32v-486 h86q25 0 24 -20v-53q0 -25 -24 -25h-86v-106q0 -25 28 -25h49q23 0 23 -18v-41q0 -25 -23 -25h-247q-31 0 -31 23v34q0 27 25 27h49q29 0 28 33v98h-438q-29 0 -29 31zM1124 313h342v424h-4z" />
<glyph unicode="&#xbf;" horiz-adv-x="1024" d="M80 -66q0 66 36 131.5t74.5 104.5t109.5 99.5t93 82.5q59 59 82 98t33 113q10 66 35 66h49q29 0 29 -66q0 -88 -40 -159.5t-97 -120.5l-111 -97q-55 -47 -95 -111.5t-40 -142.5q0 -119 95 -181t218 -62q82 0 150.5 34.5t105.5 68.5t43 34h51q31 0 31 -25q0 -23 -14.5 -73 t-34.5 -78q-31 -45 -127.5 -63.5t-177.5 -18.5q-129 0 -234.5 30.5t-184.5 116.5t-79 219zM455 885q0 41 31.5 73.5t74.5 32.5t75 -32.5t32 -73.5t-32 -74t-75 -33t-74.5 33t-31.5 74z" />
<glyph unicode="&#xc0;" horiz-adv-x="1251" d="M-31 31v51q0 33 45 33q16 0 28.5 4t33 30.5t37.5 75.5l321 924q20 66 21 84q0 39 -105 39q-45 0 -45 31v53q0 31 39 30h547q39 0 39 -30v-53q0 -31 -66 -31q-72 0 -71 -37q0 -33 10 -61l352 -949q43 -109 109 -110q37 -4 36 -29v-55q0 -31 -32 -31h-367q-39 0 -39 31v55 q0 29 37 29q106 0 107 49q0 27 -29 102l-80 219q-4 20 -41 21h-477q-18 0 -27 -19l-71 -213q-31 -88 -31 -112q0 -47 90 -47q61 0 61 -35v-49q0 -31 -39 -31h-354q-39 0 -39 31zM322 1747q0 33 20 49t45 16q43 0 102 -59l291 -291h-82l-311 199q-41 27 -53 42t-12 44z M393 621h461l-238 632h-4z" />
<glyph unicode="&#xc1;" horiz-adv-x="1251" d="M-31 31v51q0 33 45 33q16 0 28.5 4t33 30.5t37.5 75.5l321 924q20 66 21 84q0 39 -105 39q-45 0 -45 31v53q0 31 39 30h547q39 0 39 -30v-53q0 -31 -66 -31q-72 0 -71 -37q0 -33 10 -61l352 -949q43 -109 109 -110q37 -4 36 -29v-55q0 -31 -32 -31h-367q-39 0 -39 31v55 q0 29 37 29q106 0 107 49q0 27 -29 102l-80 219q-4 20 -41 21h-477q-18 0 -27 -19l-71 -213q-31 -88 -31 -112q0 -47 90 -47q61 0 61 -35v-49q0 -31 -39 -31h-354q-39 0 -39 31zM393 621h461l-238 632h-4zM473 1462l291 291q59 59 102 59q25 0 45.5 -16t20.5 -49 q0 -29 -12.5 -44t-53.5 -42l-311 -199h-82z" />
<glyph unicode="&#xc2;" horiz-adv-x="1251" d="M-31 31v51q0 33 45 33q16 0 28.5 4t33 30.5t37.5 75.5l321 924q20 66 21 84q0 39 -105 39q-45 0 -45 31v53q0 31 39 30h547q39 0 39 -30v-53q0 -31 -66 -31q-72 0 -71 -37q0 -33 10 -61l352 -949q43 -109 109 -110q37 -4 36 -29v-55q0 -31 -32 -31h-367q-39 0 -39 31v55 q0 29 37 29q106 0 107 49q0 27 -29 102l-80 219q-4 20 -41 21h-477q-18 0 -27 -19l-71 -213q-31 -88 -31 -112q0 -47 90 -47q61 0 61 -35v-49q0 -31 -39 -31h-354q-39 0 -39 31zM309 1462l254 340h127l256 -340h-69l-250 211l-246 -211h-72zM393 621h461l-238 632h-4z" />
<glyph unicode="&#xc3;" horiz-adv-x="1251" d="M-31 31v51q0 33 45 33q16 0 28.5 4t33 30.5t37.5 75.5l321 924q20 66 21 84q0 39 -105 39q-45 0 -45 31v53q0 31 39 30h547q39 0 39 -30v-53q0 -31 -66 -31q-72 0 -71 -37q0 -33 10 -61l352 -949q43 -109 109 -110q37 -4 36 -29v-55q0 -31 -32 -31h-367q-39 0 -39 31v55 q0 29 37 29q106 0 107 49q0 27 -29 102l-80 219q-4 20 -41 21h-477q-18 0 -27 -19l-71 -213q-31 -88 -31 -112q0 -47 90 -47q61 0 61 -35v-49q0 -31 -39 -31h-354q-39 0 -39 31zM289 1513q16 90 74.5 148.5t148.5 58.5q51 0 141 -47t129 -47q49 0 76 25.5t47 77.5h60 q-47 -215 -228 -216q-63 0 -149 48q-82 45 -127 45q-84 0 -111 -93h-61zM393 621h461l-238 632h-4z" />
<glyph unicode="&#xc4;" horiz-adv-x="1251" d="M-31 31v51q0 33 45 33q16 0 28.5 4t33 30.5t37.5 75.5l321 924q20 66 21 84q0 39 -105 39q-45 0 -45 31v53q0 31 39 30h547q39 0 39 -30v-53q0 -31 -66 -31q-72 0 -71 -37q0 -33 10 -61l352 -949q43 -109 109 -110q37 -4 36 -29v-55q0 -31 -32 -31h-367q-39 0 -39 31v55 q0 29 37 29q106 0 107 49q0 27 -29 102l-80 219q-4 20 -41 21h-477q-18 0 -27 -19l-71 -213q-31 -88 -31 -112q0 -47 90 -47q61 0 61 -35v-49q0 -31 -39 -31h-354q-39 0 -39 31zM326 1589q0 41 30 60l84 49q33 18 55.5 18t22.5 -37v-84q0 -29 -10 -41q-10 -14 -75.5 -50 t-84.5 -36q-23 0 -22 37v84zM393 621h461l-238 632h-4zM735 1589q0 41 31 60l84 49q33 18 55.5 18t22.5 -37v-84q0 -29 -10 -41q-10 -14 -76 -50t-84 -36q-23 0 -23 37v84z" />
<glyph unicode="&#xc5;" horiz-adv-x="1251" d="M-31 31v51q0 33 45 33q16 0 28.5 4t33 30.5t37.5 75.5l321 924q20 66 21 84q0 39 -105 39q-45 0 -45 31v53q0 31 39 30h547q39 0 39 -30v-53q0 -31 -66 -31q-72 0 -71 -37q0 -33 10 -61l352 -949q43 -109 109 -110q37 -4 36 -29v-55q0 -31 -32 -31h-367q-39 0 -39 31v55 q0 29 37 29q106 0 107 49q0 27 -29 102l-80 219q-4 20 -41 21h-477q-18 0 -27 -19l-71 -213q-31 -88 -31 -112q0 -47 90 -47q61 0 61 -35v-49q0 -31 -39 -31h-354q-39 0 -39 31zM393 621h461l-238 632h-4zM399 1652.5q0 102.5 65.5 165t162 62.5t162 -62.5t65.5 -165 t-65.5 -165t-162 -62.5t-162 62.5t-65.5 165zM498 1653q0 -51 38.5 -90t90 -39t90.5 39t39 90t-39 90t-90.5 39t-90 -39t-38.5 -90z" />
<glyph unicode="&#xc6;" horiz-adv-x="1933" d="M-25 31v49q0 35 43 35q45 0 76 23.5t64 78.5l526 856q72 115 72 150q0 49 -119 49q-35 0 -35 28v56q0 31 39 30h1028q37 0 49.5 -7t20.5 -29l47 -129q8 -18 8 -41q0 -33 -57 -33q-29 0 -55.5 19.5t-46 43t-67.5 43t-118 19.5h-317v-481h317q53 0 86 29.5t66 29.5 q29 0 40 -8t21 -33l55 -133q8 -18 8 -51q0 -31 -51 -31q-27 0 -84 41t-135 41h-323v-561h358q86 0 144.5 22.5t80 49t44 49t46.5 22.5h58q27 0 26 -25q0 -8 -12 -40l-66 -162q-12 -31 -63 -31h-889q-39 0 -39 31v53q0 20 12.5 25.5t49.5 5.5q47 0 65.5 16t18.5 64v311h-463 l-164 -266q-31 -49 -31 -84q0 -41 74 -41q66 0 66 -37v-47q0 -31 -39 -31h-396q-39 0 -39 31zM582 621h385v651h-4z" />
<glyph unicode="&#xc7;" horiz-adv-x="1251" d="M90 672q0 326 189.5 532.5t508.5 206.5q94 0 203 -26.5t125 -57.5q47 -90 47 -174q0 -25 -82 -25q-16 0 -44 26l-58 56q-31 31 -95.5 56.5t-146.5 25.5q-197 0 -332 -158.5t-135 -465.5q0 -254 146.5 -414t361.5 -160q96 0 165 41t112 82t78 41q51 0 66 -7t15 -26 q0 -12 -25.5 -82.5t-45.5 -87.5q-88 -63 -357 -80l-41 -100q41 8 60 8q70 0 120 -36.5t50 -104.5q0 -92 -75 -133t-175 -41q-88 0 -174 33l29 63q63 -23 122 -22q119 0 119 94q0 70 -104 69q-33 0 -55 -12l-21 14l72 168q-289 8 -456 202t-167 495z" />
<glyph unicode="&#xc8;" d="M90 31v53q0 20 12.5 25.5t49.5 5.5q47 0 65.5 16t18.5 64v997q0 47 -18.5 63.5t-65.5 16.5q-37 0 -49.5 5t-12.5 26v53q0 31 39 30h809q37 0 49 -7t21 -29l47 -129q8 -18 8 -41q0 -33 -57 -33q-29 0 -55.5 19.5t-46 43t-68 43t-117.5 19.5h-318v-481h318q51 0 84 29.5 t67 29.5q29 0 40.5 -8t21.5 -33l55 -133q8 -18 8 -51q0 -31 -51 -31q-27 0 -84 41t-135 41h-324v-561h359q86 0 144.5 22.5t80 49t44 49t46.5 22.5h58q27 0 26 -25q0 -8 -12 -40l-66 -162q-12 -31 -63 -31h-889q-39 0 -39 31zM276 1747q0 33 20.5 49t45.5 16q43 0 102 -59 l291 -291h-82l-311 199q-41 27 -53.5 42t-12.5 44z" />
<glyph unicode="&#xc9;" d="M90 31v53q0 20 12.5 25.5t49.5 5.5q47 0 65.5 16t18.5 64v997q0 47 -18.5 63.5t-65.5 16.5q-37 0 -49.5 5t-12.5 26v53q0 31 39 30h809q37 0 49 -7t21 -29l47 -129q8 -18 8 -41q0 -33 -57 -33q-29 0 -55.5 19.5t-46 43t-68 43t-117.5 19.5h-318v-481h318q51 0 84 29.5 t67 29.5q29 0 40.5 -8t21.5 -33l55 -133q8 -18 8 -51q0 -31 -51 -31q-27 0 -84 41t-135 41h-324v-561h359q86 0 144.5 22.5t80 49t44 49t46.5 22.5h58q27 0 26 -25q0 -8 -12 -40l-66 -162q-12 -31 -63 -31h-889q-39 0 -39 31zM428 1462l291 291q59 59 102 59q25 0 45.5 -16 t20.5 -49q0 -29 -12.5 -44t-53.5 -42l-311 -199h-82z" />
<glyph unicode="&#xca;" d="M90 31v53q0 20 12.5 25.5t49.5 5.5q47 0 65.5 16t18.5 64v997q0 47 -18.5 63.5t-65.5 16.5q-37 0 -49.5 5t-12.5 26v53q0 31 39 30h809q37 0 49 -7t21 -29l47 -129q8 -18 8 -41q0 -33 -57 -33q-29 0 -55.5 19.5t-46 43t-68 43t-117.5 19.5h-318v-481h318q51 0 84 29.5 t67 29.5q29 0 40.5 -8t21.5 -33l55 -133q8 -18 8 -51q0 -31 -51 -31q-27 0 -84 41t-135 41h-324v-561h359q86 0 144.5 22.5t80 49t44 49t46.5 22.5h58q27 0 26 -25q0 -8 -12 -40l-66 -162q-12 -31 -63 -31h-889q-39 0 -39 31zM264 1462l254 340h127l256 -340h-70l-249 211 l-246 -211h-72z" />
<glyph unicode="&#xcb;" d="M90 31v53q0 20 12.5 25.5t49.5 5.5q47 0 65.5 16t18.5 64v997q0 47 -18.5 63.5t-65.5 16.5q-37 0 -49.5 5t-12.5 26v53q0 31 39 30h809q37 0 49 -7t21 -29l47 -129q8 -18 8 -41q0 -33 -57 -33q-29 0 -55.5 19.5t-46 43t-68 43t-117.5 19.5h-318v-481h318q51 0 84 29.5 t67 29.5q29 0 40.5 -8t21.5 -33l55 -133q8 -18 8 -51q0 -31 -51 -31q-27 0 -84 41t-135 41h-324v-561h359q86 0 144.5 22.5t80 49t44 49t46.5 22.5h58q27 0 26 -25q0 -8 -12 -40l-66 -162q-12 -31 -63 -31h-889q-39 0 -39 31zM281 1589q0 41 30 60l84 49q33 18 55.5 18 t22.5 -37v-84q0 -29 -10 -41q-10 -14 -75.5 -50t-84.5 -36q-23 0 -22 37v84zM690 1589q0 41 31 60l84 49q33 18 55.5 18t22.5 -37v-84q0 -29 -11 -41q-10 -14 -75.5 -50t-83.5 -36q-23 0 -23 37v84z" />
<glyph unicode="&#xcc;" horiz-adv-x="569" d="M-20 1747q0 33 20 49t45 16q43 0 102 -59l291 -291h-82l-311 199q-41 27 -53 42t-12 44zM55 31v53q0 20 12.5 25.5t49.5 5.5q47 0 65.5 16t18.5 64v997q0 47 -18.5 63.5t-65.5 16.5q-37 0 -49.5 5t-12.5 26v53q0 31 39 30h379q39 0 39 -30v-53q0 -20 -12.5 -25.5 t-48.5 -5.5q-47 0 -65.5 -16.5t-18.5 -63.5v-997q0 -47 18 -63.5t66 -16.5q37 0 49 -5.5t12 -25.5v-53q0 -31 -39 -31h-379q-39 0 -39 31z" />
<glyph unicode="&#xcd;" horiz-adv-x="569" d="M55 31v53q0 20 12.5 25.5t49.5 5.5q47 0 65.5 16t18.5 64v997q0 47 -18.5 63.5t-65.5 16.5q-37 0 -49.5 5t-12.5 26v53q0 31 39 30h379q39 0 39 -30v-53q0 -20 -12.5 -25.5t-48.5 -5.5q-47 0 -65.5 -16.5t-18.5 -63.5v-997q0 -47 18 -63.5t66 -16.5q37 0 49 -5.5 t12 -25.5v-53q0 -31 -39 -31h-379q-39 0 -39 31zM131 1462l291 291q59 59 102 59q25 0 45.5 -16t20.5 -49q0 -29 -12.5 -44t-53.5 -42l-311 -199h-82z" />
<glyph unicode="&#xce;" horiz-adv-x="569" d="M-33 1462l254 340h127l256 -340h-69l-250 211l-246 -211h-72zM55 31v53q0 20 12.5 25.5t49.5 5.5q47 0 65.5 16t18.5 64v997q0 47 -18.5 63.5t-65.5 16.5q-37 0 -49.5 5t-12.5 26v53q0 31 39 30h379q39 0 39 -30v-53q0 -20 -12.5 -25.5t-48.5 -5.5q-47 0 -65.5 -16.5 t-18.5 -63.5v-997q0 -47 18 -63.5t66 -16.5q37 0 49 -5.5t12 -25.5v-53q0 -31 -39 -31h-379q-39 0 -39 31z" />
<glyph unicode="&#xcf;" horiz-adv-x="569" d="M-16 1589q0 41 30 60l84 49q33 18 55.5 18t22.5 -37v-84q0 -29 -10 -41q-10 -14 -75.5 -50t-84.5 -36q-23 0 -22 37v84zM55 31v53q0 20 12.5 25.5t49.5 5.5q47 0 65.5 16t18.5 64v997q0 47 -18.5 63.5t-65.5 16.5q-37 0 -49.5 5t-12.5 26v53q0 31 39 30h379q39 0 39 -30 v-53q0 -20 -12.5 -25.5t-48.5 -5.5q-47 0 -65.5 -16.5t-18.5 -63.5v-997q0 -47 18 -63.5t66 -16.5q37 0 49 -5.5t12 -25.5v-53q0 -31 -39 -31h-379q-39 0 -39 31zM393 1589q0 41 31 60l84 49q33 18 55.5 18t22.5 -37v-84q0 -29 -11 -41q-10 -14 -75.5 -50t-83.5 -36 q-23 0 -23 37v84z" />
<glyph unicode="&#xd0;" horiz-adv-x="1366" d="M61 31v53q0 20 12.5 25.5t49.5 5.5q53 0 68.5 19.5t15.5 74.5v502h-121q-25 0 -25 22v70q0 23 25 22h121v353q0 55 -15.5 74.5t-68.5 19.5q-37 0 -49.5 5t-12.5 26v53q0 31 39 30h445q47 0 97 -4t128 -20t145.5 -45t140 -81t125 -123t85 -179.5t32.5 -241.5 q0 -123 -39.5 -240.5t-118.5 -221t-219.5 -167t-322.5 -63.5h-498q-39 0 -39 31zM373 115h243q252 10 377 165.5t125 417.5q0 254 -147.5 414t-405.5 160h-192v-447h364q25 0 25 -22v-70q0 -23 -25 -22h-364v-596z" />
<glyph unicode="&#xd1;" horiz-adv-x="1478" d="M55 31v53q0 20 12.5 25.5t49.5 5.5q57 0 80.5 17.5t23.5 62.5v997q0 45 -23.5 62.5t-80.5 17.5q-37 0 -49.5 5t-12.5 26v53q0 31 39 30h299q43 0 59.5 -15t53.5 -85l594 -1087h4v993q0 47 -18.5 63.5t-65.5 16.5q-37 0 -49.5 5t-12.5 26v53q0 31 39 30h385q39 0 39 -30 v-53q0 -20 -12 -25.5t-49 -5.5q-57 0 -81 -17.5t-24 -62.5v-1129q0 -63 -67 -63h-103q-39 0 -71 59l-637 1162h-4v-1026q0 -47 18.5 -63.5t65.5 -16.5q37 0 49 -5.5t12 -25.5v-53q0 -31 -39 -31h-385q-39 0 -39 31zM426 1513q16 90 74.5 148.5t148.5 58.5q51 0 141.5 -47 t129.5 -47q49 0 75.5 25.5t46.5 77.5h60q-48 -215 -228 -216q-63 0 -149 48q-82 45 -127 45q-84 0 -111 -93h-61z" />
<glyph unicode="&#xd2;" horiz-adv-x="1478" d="M74 694q0 315 179 516t486.5 201t486.5 -200.5t179 -516.5q0 -317 -179 -518t-486.5 -201t-486.5 201t-179 518zM254 694q0 -252 126 -426t359.5 -174t359.5 174t126 426t-126 425t-359.5 173t-359.5 -173t-126 -425zM434 1747q0 33 20.5 49t45.5 16q43 0 102 -59 l291 -291h-82l-311 199q-41 27 -53.5 42t-12.5 44z" />
<glyph unicode="&#xd3;" horiz-adv-x="1478" d="M74 694q0 315 179 516t486.5 201t486.5 -200.5t179 -516.5q0 -317 -179 -518t-486.5 -201t-486.5 201t-179 518zM254 694q0 -252 126 -426t359.5 -174t359.5 174t126 426t-126 425t-359.5 173t-359.5 -173t-126 -425zM586 1462l291 291q59 59 102 59q25 0 45 -16t20 -49 q0 -29 -12 -44t-53 -42l-311 -199h-82z" />
<glyph unicode="&#xd4;" horiz-adv-x="1478" d="M74 694q0 315 179 516t486.5 201t486.5 -200.5t179 -516.5q0 -317 -179 -518t-486.5 -201t-486.5 201t-179 518zM254 694q0 -252 126 -426t359.5 -174t359.5 174t126 426t-126 425t-359.5 173t-359.5 -173t-126 -425zM422 1462l254 340h127l256 -340h-70l-250 211 l-245 -211h-72z" />
<glyph unicode="&#xd5;" horiz-adv-x="1478" d="M74 694q0 315 179 516t486.5 201t486.5 -200.5t179 -516.5q0 -317 -179 -518t-486.5 -201t-486.5 201t-179 518zM254 694q0 -252 126 -426t359.5 -174t359.5 174t126 426t-126 425t-359.5 173t-359.5 -173t-126 -425zM401 1513q16 90 75 148.5t149 58.5q51 0 141 -47 t129 -47q49 0 75.5 25.5t47.5 77.5h59q-47 -215 -227 -216q-63 0 -150 48q-82 45 -127 45q-84 0 -110 -93h-62z" />
<glyph unicode="&#xd6;" horiz-adv-x="1478" d="M74 694q0 315 179 516t486.5 201t486.5 -200.5t179 -516.5q0 -317 -179 -518t-486.5 -201t-486.5 201t-179 518zM254 694q0 -252 126 -426t359.5 -174t359.5 174t126 426t-126 425t-359.5 173t-359.5 -173t-126 -425zM438 1589q0 41 31 60l84 49q33 18 55.5 18t22.5 -37 v-84q0 -29 -10 -41q-10 -14 -76 -50t-84 -36q-23 0 -23 37v84zM848 1589q0 41 31 60l84 49q33 18 55 18t22 -37v-84q0 -29 -10 -41q-10 -14 -75.5 -50t-84.5 -36q-23 0 -22 37v84z" />
<glyph unicode="&#xd7;" horiz-adv-x="1228" d="M145 78l394 391l-394 391l78 78l389 -395l394 395l77 -78l-395 -391l395 -391l-77 -78l-394 393l-389 -393z" />
<glyph unicode="&#xd8;" horiz-adv-x="1478" d="M31 -113l223 291q-180 193 -180 516q0 315 179 516t486 201q215 0 375 -104l121 157h151l-180 -235q199 -199 199 -535q0 -317 -179 -518t-487 -201q-231 0 -397 121l-160 -209h-151zM254 694q0 -227 100 -385l674 883q-117 100 -289 100q-233 0 -359 -173t-126 -425z M432 213q119 -119 307 -119q233 0 359.5 174t126.5 426q0 248 -115 408z" />
<glyph unicode="&#xd9;" horiz-adv-x="1366" d="M37 1303v53q0 31 39 30h379q39 0 39 -30v-53q0 -20 -12.5 -25.5t-49.5 -5.5q-47 0 -65.5 -16.5t-18.5 -63.5v-737q0 -162 82 -261.5t242 -99.5q154 0 259 90t105 287v721q0 47 -18.5 63.5t-65.5 16.5q-37 0 -49 5t-12 26v53q0 31 39 30h364q39 0 39 -30v-53 q0 -20 -12 -25.5t-49 -5.5q-47 0 -65.5 -16.5t-18.5 -63.5v-739q0 -238 -139.5 -358t-384.5 -120q-209 0 -345.5 117t-136.5 326v774q0 47 -18.5 63.5t-65.5 16.5q-37 0 -49 5.5t-12 25.5zM403 1747q0 33 20.5 49t45.5 16q43 0 102 -59l291 -291h-82l-311 199 q-41 27 -53.5 42t-12.5 44z" />
<glyph unicode="&#xda;" horiz-adv-x="1366" d="M37 1303v53q0 31 39 30h379q39 0 39 -30v-53q0 -20 -12.5 -25.5t-49.5 -5.5q-47 0 -65.5 -16.5t-18.5 -63.5v-737q0 -162 82 -261.5t242 -99.5q154 0 259 90t105 287v721q0 47 -18.5 63.5t-65.5 16.5q-37 0 -49 5t-12 26v53q0 31 39 30h364q39 0 39 -30v-53 q0 -20 -12 -25.5t-49 -5.5q-47 0 -65.5 -16.5t-18.5 -63.5v-739q0 -238 -139.5 -358t-384.5 -120q-209 0 -345.5 117t-136.5 326v774q0 47 -18.5 63.5t-65.5 16.5q-37 0 -49 5.5t-12 25.5zM555 1462l291 291q59 59 102 59q25 0 45.5 -16t20.5 -49q0 -29 -12.5 -44t-53.5 -42 l-311 -199h-82z" />
<glyph unicode="&#xdb;" horiz-adv-x="1366" d="M37 1303v53q0 31 39 30h379q39 0 39 -30v-53q0 -20 -12.5 -25.5t-49.5 -5.5q-47 0 -65.5 -16.5t-18.5 -63.5v-737q0 -162 82 -261.5t242 -99.5q154 0 259 90t105 287v721q0 47 -18.5 63.5t-65.5 16.5q-37 0 -49 5t-12 26v53q0 31 39 30h364q39 0 39 -30v-53 q0 -20 -12 -25.5t-49 -5.5q-47 0 -65.5 -16.5t-18.5 -63.5v-739q0 -238 -139.5 -358t-384.5 -120q-209 0 -345.5 117t-136.5 326v774q0 47 -18.5 63.5t-65.5 16.5q-37 0 -49 5.5t-12 25.5zM391 1462l254 340h127l256 -340h-70l-249 211l-246 -211h-72z" />
<glyph unicode="&#xdc;" horiz-adv-x="1366" d="M37 1303v53q0 31 39 30h379q39 0 39 -30v-53q0 -20 -12.5 -25.5t-49.5 -5.5q-47 0 -65.5 -16.5t-18.5 -63.5v-737q0 -162 82 -261.5t242 -99.5q154 0 259 90t105 287v721q0 47 -18.5 63.5t-65.5 16.5q-37 0 -49 5t-12 26v53q0 31 39 30h364q39 0 39 -30v-53 q0 -20 -12 -25.5t-49 -5.5q-47 0 -65.5 -16.5t-18.5 -63.5v-739q0 -238 -139.5 -358t-384.5 -120q-209 0 -345.5 117t-136.5 326v774q0 47 -18.5 63.5t-65.5 16.5q-37 0 -49 5.5t-12 25.5zM408 1589q0 41 30 60l84 49q33 18 55.5 18t22.5 -37v-84q0 -29 -10 -41 q-10 -14 -75.5 -50t-84.5 -36q-23 0 -22 37v84zM817 1589q0 41 31 60l84 49q33 18 55.5 18t22.5 -37v-84q0 -29 -11 -41q-10 -14 -75.5 -50t-83.5 -36q-23 0 -23 37v84z" />
<glyph unicode="&#xdd;" d="M-12 1305v51q0 31 39 30h387q39 0 39 -30v-43q0 -23 -9.5 -32t-35.5 -9q-100 0 -101 -58q0 -18 31 -79l299 -562l254 545q29 66 29 99q0 23 -27 39t-72 16q-55 0 -55 28v56q0 31 39 30h369q39 0 38 -30v-53q0 -31 -43 -31q-57 0 -86 -62l-411 -897q-41 -86 -41 -123 q0 -76 117 -75q53 0 53 -39v-45q0 -31 -39 -31h-324q-39 0 -39 31q0 43 25 88l106 211q20 41 21 61q0 27 -23 70l-378 706q-57 104 -117 105q-45 0 -45 33zM428 1462l291 291q59 59 102 59q25 0 45.5 -16t20.5 -49q0 -29 -12.5 -44t-53.5 -42l-311 -199h-82z" />
<glyph unicode="&#xde;" d="M55 31v53q0 20 12.5 25.5t49.5 5.5q47 0 65.5 16t18.5 64v997q0 47 -18.5 63.5t-65.5 16.5q-37 0 -49.5 5t-12.5 26v53q0 31 39 30h379q39 0 39 -30v-53q0 -20 -12.5 -25.5t-48.5 -5.5q-47 0 -65.5 -16.5t-18.5 -63.5v-74h260q86 0 159.5 -15.5t147.5 -53t117 -117.5 t43 -193q0 -176 -111 -273t-319 -97h-297v-174q0 -47 18 -63.5t66 -16.5q37 0 49 -5.5t12 -25.5v-53q0 -31 -39 -31h-379q-39 0 -39 31zM367 483h254q162 0 234.5 66.5t72.5 206.5q0 104 -83 176t-257 72h-221v-521z" />
<glyph unicode="&#xdf;" d="M37 31v41q0 20 13 27t50 7q41 0 55.5 16.5t14.5 67.5v871q0 166 102.5 258t268.5 92q133 0 232 -79t99 -210q0 -68 -25.5 -118t-57 -77.5t-95.5 -68.5q168 -35 268.5 -150.5t100.5 -283.5q0 -223 -130 -333.5t-349 -110.5q-147 0 -148 51v45q0 25 25 24q12 0 48 -7t64 -7 q145 0 241.5 90t96.5 238q0 121 -63.5 209t-142.5 116q-57 23 -120 29t-87.5 10t-24.5 27v47q0 8 13.5 15t50 23.5t57.5 27.5q49 23 88 73.5t39 114.5q0 94 -56.5 146.5t-154.5 52.5q-188 0 -188 -215v-1047q0 -25 -8.5 -34t-28.5 -9h-209q-39 0 -39 31z" />
<glyph unicode="&#xe0;" horiz-adv-x="1024" d="M76 264q0 100 52 174t145.5 114t202 58.5t237.5 18.5v61q0 76 -62.5 119t-154.5 43q-63 0 -112.5 -19.5t-73 -43t-55.5 -43t-69 -19.5q-49 0 -49 27v90q0 45 119 79.5t246 34.5q362 0 362 -270v-543q0 -39 25 -39q10 0 33.5 1.5t35.5 1.5q35 0 35 -43q0 -35 -56 -60.5 t-106 -25.5q-59 0 -81.5 33.5t-30.5 99.5q-145 -133 -346 -133q-131 0 -214 77.5t-83 206.5zM195 1333q0 33 20.5 49.5t44.5 16.5q43 0 102 -60l291 -290h-82l-311 198q-41 27 -53 42t-12 44zM227 279q0 -166 207 -166q84 0 163 49t116 102v258q-486 -5 -486 -243z" />
<glyph unicode="&#xe1;" horiz-adv-x="1024" d="M76 264q0 100 52 174t145.5 114t202 58.5t237.5 18.5v61q0 76 -62.5 119t-154.5 43q-63 0 -112.5 -19.5t-73 -43t-55.5 -43t-69 -19.5q-49 0 -49 27v90q0 45 119 79.5t246 34.5q362 0 362 -270v-543q0 -39 25 -39q10 0 33.5 1.5t35.5 1.5q35 0 35 -43q0 -35 -56 -60.5 t-106 -25.5q-59 0 -81.5 33.5t-30.5 99.5q-145 -133 -346 -133q-131 0 -214 77.5t-83 206.5zM227 279q0 -166 207 -166q84 0 163 49t116 102v258q-486 -5 -486 -243zM346 1049l291 290q59 59 102 60q25 0 45.5 -16.5t20.5 -49.5q0 -29 -12.5 -44t-53.5 -42l-311 -198h-82z " />
<glyph unicode="&#xe2;" horiz-adv-x="1024" d="M76 264q0 100 52 174t145.5 114t202 58.5t237.5 18.5v61q0 76 -62.5 119t-154.5 43q-63 0 -112.5 -19.5t-73 -43t-55.5 -43t-69 -19.5q-49 0 -49 27v90q0 45 119 79.5t246 34.5q362 0 362 -270v-543q0 -39 25 -39q10 0 33.5 1.5t35.5 1.5q35 0 35 -43q0 -35 -56 -60.5 t-106 -25.5q-59 0 -81.5 33.5t-30.5 99.5q-145 -133 -346 -133q-131 0 -214 77.5t-83 206.5zM182 1049l254 340h127l256 -340h-69l-250 211l-246 -211h-72zM227 279q0 -166 207 -166q84 0 163 49t116 102v258q-486 -5 -486 -243z" />
<glyph unicode="&#xe3;" horiz-adv-x="1024" d="M76 264q0 100 52 174t145.5 114t202 58.5t237.5 18.5v61q0 76 -62.5 119t-154.5 43q-63 0 -112.5 -19.5t-73 -43t-55.5 -43t-69 -19.5q-49 0 -49 27v90q0 45 119 79.5t246 34.5q362 0 362 -270v-543q0 -39 25 -39q10 0 33.5 1.5t35.5 1.5q35 0 35 -43q0 -35 -56 -60.5 t-106 -25.5q-59 0 -81.5 33.5t-30.5 99.5q-145 -133 -346 -133q-131 0 -214 77.5t-83 206.5zM162 1100q16 90 74.5 148.5t148.5 58.5q51 0 141 -47.5t129 -47.5q49 0 76 26t47 77h60q-47 -215 -228 -215q-63 0 -149 47q-82 45 -127 45q-84 0 -111 -92h-61zM227 279 q0 -166 207 -166q84 0 163 49t116 102v258q-486 -5 -486 -243z" />
<glyph unicode="&#xe4;" horiz-adv-x="1024" d="M76 264q0 100 52 174t145.5 114t202 58.5t237.5 18.5v61q0 76 -62.5 119t-154.5 43q-63 0 -112.5 -19.5t-73 -43t-55.5 -43t-69 -19.5q-49 0 -49 27v90q0 45 119 79.5t246 34.5q362 0 362 -270v-543q0 -39 25 -39q10 0 33.5 1.5t35.5 1.5q35 0 35 -43q0 -35 -56 -60.5 t-106 -25.5q-59 0 -81.5 33.5t-30.5 99.5q-145 -133 -346 -133q-131 0 -214 77.5t-83 206.5zM199 1176q0 41 30 59l84 49q33 18 55.5 18.5t22.5 -36.5v-84q0 -29 -10 -41q-10 -14 -75.5 -50t-84.5 -36q-23 0 -22 37v84zM227 279q0 -166 207 -166q84 0 163 49t116 102v258 q-486 -5 -486 -243zM608 1176q0 41 31 59l84 49q33 18 55.5 18.5t22.5 -36.5v-84q0 -29 -10 -41q-10 -14 -76 -50t-84 -36q-23 0 -23 37v84z" />
<glyph unicode="&#xe5;" horiz-adv-x="1024" d="M76 264q0 100 52 174t145.5 114t202 58.5t237.5 18.5v61q0 76 -62.5 119t-154.5 43q-63 0 -112.5 -19.5t-73 -43t-55.5 -43t-69 -19.5q-49 0 -49 27v90q0 45 119 79.5t246 34.5q362 0 362 -270v-543q0 -39 25 -39q10 0 33.5 1.5t35.5 1.5q35 0 35 -43q0 -35 -56 -60.5 t-106 -25.5q-59 0 -81.5 33.5t-30.5 99.5q-145 -133 -346 -133q-131 0 -214 77.5t-83 206.5zM227 279q0 -166 207 -166q84 0 163 49t116 102v258q-486 -5 -486 -243zM272 1239q0 102 65.5 164.5t162 62.5t162 -62.5t65.5 -164.5t-65.5 -164.5t-162 -62.5t-162 62.5 t-65.5 164.5zM371 1239q0 -51 39 -90t90 -39t90 39t39 90t-39 90t-90 39t-90 -39t-39 -90z" />
<glyph unicode="&#xe6;" horiz-adv-x="1593" d="M57 281q0 96 54.5 168.5t141.5 109.5t175 53.5t176 16.5h101v30q0 98 -67 145.5t-161 47.5q-72 0 -126 -32t-93 -63.5t-72 -31.5q-70 0 -69 57v47q0 61 116.5 95t251.5 34q242 0 340 -147q150 147 363 147q125 0 229.5 -70.5t104.5 -189.5q0 -27 -8.5 -47t-29 -36.5 t-32.5 -22.5l-43 -23l-508 -264q96 -193 313 -192q88 0 185.5 51t103.5 51q16 0 33.5 -19.5t17.5 -45.5q0 -20 -57 -60.5t-156.5 -75t-191.5 -34.5q-211 0 -365 192q-102 -102 -190 -147t-215 -45q-150 0 -236 78t-86 223zM209 283q0 -82 62.5 -126t150.5 -44q86 0 177 51 t132 123q-36 83 -36 192q0 21 1 43q-55 0 -91 -1t-102.5 -7t-109.5 -21.5t-90 -41t-70.5 -68.5t-23.5 -100zM848 494q0 -35 10 -72l402 205q39 16 55 35.5t16 56.5q0 59 -57 92t-123 33q-135 0 -219 -105.5t-84 -244.5z" />
<glyph unicode="&#xe7;" horiz-adv-x="909" d="M66 467q0 213 146 352t380 139q76 0 176 -25.5t100 -70.5q0 -127 -14 -141q-14 -12 -63 -12q-27 0 -65 33.5t-91 67.5t-121 34q-131 0 -208 -111.5t-77 -249.5q0 -158 101.5 -264t257.5 -106q76 0 162 34.5t100 34.5t24.5 -20.5t10.5 -36.5q0 -18 -41 -48t-114 -58.5 t-148 -34.5l-43 -109q41 8 59 8q70 0 120 -36.5t50 -104.5q0 -92 -75 -133t-175 -41q-88 0 -174 33l29 63q63 -23 123 -22q119 0 118 94q0 70 -104 69q-35 0 -55 -12l-21 14l76 177q-201 8 -322.5 144t-121.5 339z" />
<glyph unicode="&#xe8;" horiz-adv-x="1024" d="M66 465q0 221 143 357t375 136q74 0 151.5 -25.5t138 -85t60.5 -136.5q0 -33 -8 -56.5t-36 -44t-39 -26.5t-56 -29l-508 -254q41 -90 128 -139t189 -49q84 0 157 25.5t117 51t56 25.5q16 0 33.5 -19.5t17.5 -45.5q0 -20 -57.5 -60.5t-156.5 -75t-191 -34.5 q-207 0 -360.5 135t-153.5 350zM229 524q0 -70 17 -108l413 205q45 23 64.5 44t19.5 54q0 61 -57 93t-123 32q-154 0 -244 -100.5t-90 -219.5zM266 1333q0 33 20.5 49.5t45.5 16.5q43 0 102 -60l291 -290h-82l-311 198q-41 27 -53.5 42t-12.5 44z" />
<glyph unicode="&#xe9;" horiz-adv-x="1024" d="M66 465q0 221 143 357t375 136q74 0 151.5 -25.5t138 -85t60.5 -136.5q0 -33 -8 -56.5t-36 -44t-39 -26.5t-56 -29l-508 -254q41 -90 128 -139t189 -49q84 0 157 25.5t117 51t56 25.5q16 0 33.5 -19.5t17.5 -45.5q0 -20 -57.5 -60.5t-156.5 -75t-191 -34.5 q-207 0 -360.5 135t-153.5 350zM229 524q0 -70 17 -108l413 205q45 23 64.5 44t19.5 54q0 61 -57 93t-123 32q-154 0 -244 -100.5t-90 -219.5zM418 1049l291 290q59 59 102 60q25 0 45.5 -16.5t20.5 -49.5q0 -29 -12.5 -44t-53.5 -42l-311 -198h-82z" />
<glyph unicode="&#xea;" horiz-adv-x="1024" d="M66 465q0 221 143 357t375 136q74 0 151.5 -25.5t138 -85t60.5 -136.5q0 -33 -8 -56.5t-36 -44t-39 -26.5t-56 -29l-508 -254q41 -90 128 -139t189 -49q84 0 157 25.5t117 51t56 25.5q16 0 33.5 -19.5t17.5 -45.5q0 -20 -57.5 -60.5t-156.5 -75t-191 -34.5 q-207 0 -360.5 135t-153.5 350zM229 524q0 -70 17 -108l413 205q45 23 64.5 44t19.5 54q0 61 -57 93t-123 32q-154 0 -244 -100.5t-90 -219.5zM254 1049l254 340h127l256 -340h-70l-250 211l-245 -211h-72z" />
<glyph unicode="&#xeb;" horiz-adv-x="1024" d="M66 465q0 221 143 357t375 136q74 0 151.5 -25.5t138 -85t60.5 -136.5q0 -33 -8 -56.5t-36 -44t-39 -26.5t-56 -29l-508 -254q41 -90 128 -139t189 -49q84 0 157 25.5t117 51t56 25.5q16 0 33.5 -19.5t17.5 -45.5q0 -20 -57.5 -60.5t-156.5 -75t-191 -34.5 q-207 0 -360.5 135t-153.5 350zM229 524q0 -70 17 -108l413 205q45 23 64.5 44t19.5 54q0 61 -57 93t-123 32q-154 0 -244 -100.5t-90 -219.5zM270 1176q0 41 31 59l84 49q33 18 55.5 18.5t22.5 -36.5v-84q0 -29 -10 -41q-10 -14 -76 -50t-84 -36q-23 0 -23 37v84zM680 1176 q0 41 31 59l84 49q33 18 55 18.5t22 -36.5v-84q0 -29 -10 -41q-10 -14 -75.5 -50t-84.5 -36q-23 0 -22 37v84z" />
<glyph unicode="&#xec;" horiz-adv-x="454" d="M-78 1333q0 33 20.5 49.5t45.5 16.5q43 0 102 -60l291 -290h-82l-311 198q-41 27 -53.5 42t-12.5 44zM25 31v35q0 41 47 40q49 0 64.5 15.5t15.5 68.5v496q0 39 -39 39q-14 0 -39 -8t-31 -8q-18 0 -18 24v45q0 23 20 33l127 62q59 30 85 44.5t48.5 24.5t30.5 13t16 3 q33 0 33 -26v-39q0 -27 -29 -45q-33 -20 -43 -34.5t-10 -43.5v-580q0 -53 15.5 -68.5t64.5 -15.5q45 0 45 -40v-35q0 -31 -39 -31h-326q-38 0 -38 31z" />
<glyph unicode="&#xed;" horiz-adv-x="454" d="M25 31v35q0 41 47 40q49 0 64.5 15.5t15.5 68.5v496q0 39 -39 39q-14 0 -39 -8t-31 -8q-18 0 -18 24v45q0 23 20 33l127 62q59 30 85 44.5t48.5 24.5t30.5 13t16 3q33 0 33 -26v-39q0 -27 -29 -45q-33 -20 -43 -34.5t-10 -43.5v-580q0 -53 15.5 -68.5t64.5 -15.5 q45 0 45 -40v-35q0 -31 -39 -31h-326q-38 0 -38 31zM74 1049l291 290q59 59 102 60q25 0 45 -16.5t20 -49.5q0 -29 -12 -44t-53 -42l-311 -198h-82z" />
<glyph unicode="&#xee;" horiz-adv-x="454" d="M-90 1049l254 340h127l256 -340h-70l-250 211l-245 -211h-72zM25 31v35q0 41 47 40q49 0 64.5 15.5t15.5 68.5v496q0 39 -39 39q-14 0 -39 -8t-31 -8q-18 0 -18 24v45q0 23 20 33l127 62q59 30 85 44.5t48.5 24.5t30.5 13t16 3q33 0 33 -26v-39q0 -27 -29 -45 q-33 -20 -43 -34.5t-10 -43.5v-580q0 -53 15.5 -68.5t64.5 -15.5q45 0 45 -40v-35q0 -31 -39 -31h-326q-38 0 -38 31z" />
<glyph unicode="&#xef;" horiz-adv-x="454" d="M-74 1176q0 41 31 59l84 49q33 18 55.5 18.5t22.5 -36.5v-84q0 -29 -10 -41q-10 -14 -76 -50t-84 -36q-23 0 -23 37v84zM25 31v35q0 41 47 40q49 0 64.5 15.5t15.5 68.5v496q0 39 -39 39q-14 0 -39 -8t-31 -8q-18 0 -18 24v45q0 23 20 33l127 62q59 30 85 44.5t48.5 24.5 t30.5 13t16 3q33 0 33 -26v-39q0 -27 -29 -45q-33 -20 -43 -34.5t-10 -43.5v-580q0 -53 15.5 -68.5t64.5 -15.5q45 0 45 -40v-35q0 -31 -39 -31h-326q-38 0 -38 31zM336 1176q0 41 31 59l84 49q33 18 55 18.5t22 -36.5v-84q0 -29 -10 -41q-10 -14 -75.5 -50t-84.5 -36 q-23 0 -22 37v84z" />
<glyph unicode="&#xf0;" d="M88 434q0 203 119 329t313 126q141 0 240 -86l4 4q-61 178 -221 313l-197 -135q-14 -10 -29 -10q-20 0 -37.5 18.5t-17.5 38.5q0 23 31 45l168 117q-57 45 -142 75l-131 47q-47 17 -47 46q0 41 70 41q66 0 174.5 -37t194.5 -92l182 133q14 10 29 10q20 0 37.5 -18.5 t17.5 -38.5q0 -23 -31 -45l-153 -113q168 -133 256 -316.5t88 -369.5q0 -242 -119 -389t-367 -147q-176 0 -304 136t-128 318zM252 434q0 -158 79 -253t216 -95t216 95t79 253q0 147 -80 247.5t-215 100.5t-215 -100.5t-80 -247.5z" />
<glyph unicode="&#xf1;" d="M49 735v41q0 12 25 35l164 133q16 14 47 14q43 0 43 -30v-142q102 96 172.5 134t189.5 38q131 0 213 -89t82 -251v-428q0 -53 15.5 -68.5t64.5 -15.5q45 0 45 -40v-35q0 -31 -39 -31h-323q-39 0 -39 31v35q0 41 45 40q49 0 64.5 15.5t15.5 68.5v428q0 88 -50.5 147.5 t-150.5 59.5q-160 0 -305 -157v-478q0 -53 15 -68.5t65 -15.5q45 0 45 -40v-35q0 -31 -39 -31h-324q-39 0 -39 31v35q0 41 45 40q49 0 64.5 15.5t15.5 68.5v500q0 37 -37 37q-12 0 -36.5 -9t-30.5 -9q-23 -1 -23 26zM231 1100q16 90 75 148.5t149 58.5q51 0 141 -47.5 t129 -47.5q49 0 75.5 26t47.5 77h59q-47 -215 -227 -215q-63 0 -150 47q-82 45 -127 45q-84 0 -110 -92h-62z" />
<glyph unicode="&#xf2;" d="M74 469q0 211 143 350t352 139t352.5 -139t143.5 -350t-143.5 -350t-352.5 -139t-352 139t-143 350zM238 479q0 -143 101 -268t247 -125q147 0 231 92t84 248q0 166 -98 296t-256 130q-135 0 -222 -102.5t-87 -270.5zM264 1333q0 33 20.5 49.5t45.5 16.5q43 0 102 -60 l291 -290h-82l-311 198q-41 27 -53.5 42t-12.5 44z" />
<glyph unicode="&#xf3;" d="M74 469q0 211 143 350t352 139t352.5 -139t143.5 -350t-143.5 -350t-352.5 -139t-352 139t-143 350zM238 479q0 -143 101 -268t247 -125q147 0 231 92t84 248q0 166 -98 296t-256 130q-135 0 -222 -102.5t-87 -270.5zM416 1049l291 290q59 59 102 60q25 0 45 -16.5 t20 -49.5q0 -29 -12 -44t-53 -42l-311 -198h-82z" />
<glyph unicode="&#xf4;" d="M74 469q0 211 143 350t352 139t352.5 -139t143.5 -350t-143.5 -350t-352.5 -139t-352 139t-143 350zM238 479q0 -143 101 -268t247 -125q147 0 231 92t84 248q0 166 -98 296t-256 130q-135 0 -222 -102.5t-87 -270.5zM252 1049l254 340h127l256 -340h-70l-250 211 l-245 -211h-72z" />
<glyph unicode="&#xf5;" d="M74 469q0 211 143 350t352 139t352.5 -139t143.5 -350t-143.5 -350t-352.5 -139t-352 139t-143 350zM231 1100q16 90 75 148.5t149 58.5q51 0 141 -47.5t129 -47.5q49 0 75.5 26t47.5 77h59q-47 -215 -227 -215q-63 0 -150 47q-82 45 -127 45q-84 0 -110 -92h-62z M238 479q0 -143 101 -268t247 -125q147 0 231 92t84 248q0 166 -98 296t-256 130q-135 0 -222 -102.5t-87 -270.5z" />
<glyph unicode="&#xf6;" d="M74 469q0 211 143 350t352 139t352.5 -139t143.5 -350t-143.5 -350t-352.5 -139t-352 139t-143 350zM238 479q0 -143 101 -268t247 -125q147 0 231 92t84 248q0 166 -98 296t-256 130q-135 0 -222 -102.5t-87 -270.5zM268 1176q0 41 31 59l84 49q33 18 55.5 18.5 t22.5 -36.5v-84q0 -29 -10 -41q-10 -14 -76 -50t-84 -36q-23 0 -23 37v84zM678 1176q0 41 31 59l84 49q33 18 55 18.5t22 -36.5v-84q0 -29 -10 -41q-10 -14 -75.5 -50t-84.5 -36q-23 0 -22 37v84z" />
<glyph unicode="&#xf7;" horiz-adv-x="1228" d="M145 416v106h938v-106h-938zM504 90q0 45 32.5 78t77.5 33t78 -33t33 -78t-33 -77.5t-78 -32.5t-77.5 32.5t-32.5 77.5zM504 848q0 45 32.5 77.5t77.5 32.5t78 -32.5t33 -77.5t-33 -78t-78 -33t-77.5 33t-32.5 78z" />
<glyph unicode="&#xf8;" d="M39 -145l194 251q-160 137 -159 363q0 211 143 350t352 139q143 0 265 -71l139 180h127l-187 -242q152 -135 152 -356q0 -211 -143.5 -350t-352.5 -139q-143 0 -254 67l-149 -192h-127zM238 479q0 -135 88 -252l422 549q-86 76 -201 76q-135 0 -222 -102.5t-87 -270.5z M399 156q80 -70 187 -70q147 0 231 92t84 248t-84 274z" />
<glyph unicode="&#xf9;" d="M35 733v45q0 23 20 33l127 62q59 30 85 44.5t48.5 24.5t30.5 13t16 3q33 0 33 -26v-39q0 -27 -28 -45q-33 -20 -43.5 -34.5t-10.5 -43.5v-453q0 -100 52.5 -152t144.5 -52q98 0 182 55t127 113v405q0 39 -39 39q-14 0 -38.5 -8t-30.5 -8q-18 0 -19 24v45q0 23 21 33 l127 62q59 30 84.5 44.5t48 24.5t31 13t16.5 3q33 0 33 -26v-39q0 -27 -29 -45q-33 -20 -43 -34.5t-10 -43.5v-580q0 -53 15 -68.5t65 -15.5q45 0 45 -40v-35q0 -31 -39 -31h-193q-43 0 -43 47v90q-100 -84 -177 -120.5t-183 -36.5q-145 0 -222 90t-77 235v381q0 39 -39 39 q-12 0 -37 -8t-33 -8q-18 -1 -18 24zM276 1333q0 33 20.5 49.5t45.5 16.5q43 0 102 -60l291 -290h-82l-311 198q-41 27 -53.5 42t-12.5 44z" />
<glyph unicode="&#xfa;" d="M35 733v45q0 23 20 33l127 62q59 30 85 44.5t48.5 24.5t30.5 13t16 3q33 0 33 -26v-39q0 -27 -28 -45q-33 -20 -43.5 -34.5t-10.5 -43.5v-453q0 -100 52.5 -152t144.5 -52q98 0 182 55t127 113v405q0 39 -39 39q-14 0 -38.5 -8t-30.5 -8q-18 0 -19 24v45q0 23 21 33 l127 62q59 30 84.5 44.5t48 24.5t31 13t16.5 3q33 0 33 -26v-39q0 -27 -29 -45q-33 -20 -43 -34.5t-10 -43.5v-580q0 -53 15 -68.5t65 -15.5q45 0 45 -40v-35q0 -31 -39 -31h-193q-43 0 -43 47v90q-100 -84 -177 -120.5t-183 -36.5q-145 0 -222 90t-77 235v381q0 39 -39 39 q-12 0 -37 -8t-33 -8q-18 -1 -18 24zM428 1049l291 290q59 59 102 60q25 0 45.5 -16.5t20.5 -49.5q0 -29 -12.5 -44t-53.5 -42l-311 -198h-82z" />
<glyph unicode="&#xfb;" d="M35 733v45q0 23 20 33l127 62q59 30 85 44.5t48.5 24.5t30.5 13t16 3q33 0 33 -26v-39q0 -27 -28 -45q-33 -20 -43.5 -34.5t-10.5 -43.5v-453q0 -100 52.5 -152t144.5 -52q98 0 182 55t127 113v405q0 39 -39 39q-14 0 -38.5 -8t-30.5 -8q-18 0 -19 24v45q0 23 21 33 l127 62q59 30 84.5 44.5t48 24.5t31 13t16.5 3q33 0 33 -26v-39q0 -27 -29 -45q-33 -20 -43 -34.5t-10 -43.5v-580q0 -53 15 -68.5t65 -15.5q45 0 45 -40v-35q0 -31 -39 -31h-193q-43 0 -43 47v90q-100 -84 -177 -120.5t-183 -36.5q-145 0 -222 90t-77 235v381q0 39 -39 39 q-12 0 -37 -8t-33 -8q-18 -1 -18 24zM264 1049l254 340h127l256 -340h-70l-249 211l-246 -211h-72z" />
<glyph unicode="&#xfc;" d="M35 733v45q0 23 20 33l127 62q59 30 85 44.5t48.5 24.5t30.5 13t16 3q33 0 33 -26v-39q0 -27 -28 -45q-33 -20 -43.5 -34.5t-10.5 -43.5v-453q0 -100 52.5 -152t144.5 -52q98 0 182 55t127 113v405q0 39 -39 39q-14 0 -38.5 -8t-30.5 -8q-18 0 -19 24v45q0 23 21 33 l127 62q59 30 84.5 44.5t48 24.5t31 13t16.5 3q33 0 33 -26v-39q0 -27 -29 -45q-33 -20 -43 -34.5t-10 -43.5v-580q0 -53 15 -68.5t65 -15.5q45 0 45 -40v-35q0 -31 -39 -31h-193q-43 0 -43 47v90q-100 -84 -177 -120.5t-183 -36.5q-145 0 -222 90t-77 235v381q0 39 -39 39 q-12 0 -37 -8t-33 -8q-18 -1 -18 24zM281 1176q0 41 30 59l84 49q33 18 55.5 18.5t22.5 -36.5v-84q0 -29 -10 -41q-10 -14 -75.5 -50t-84.5 -36q-23 0 -22 37v84zM690 1176q0 41 31 59l84 49q33 18 55.5 18.5t22.5 -36.5v-84q0 -29 -11 -41q-10 -14 -75.5 -50t-83.5 -36 q-23 0 -23 37v84z" />
<glyph unicode="&#xfd;" horiz-adv-x="1024" d="M-23 864v43q0 31 39 31h316q39 0 39 -31v-43q0 -33 -45 -33q-31 0 -49.5 -12t-18.5 -28q0 -27 18 -72l252 -549l236 561q14 31 14 64q0 37 -80 36q-31 0 -30 31v45q0 31 39 31h297q39 0 38 -31v-47q0 -20 -14 -26.5t-34.5 -6.5t-46 -20.5t-42.5 -63.5l-352 -862 q-37 -92 -37 -141q0 -29 28.5 -47.5t78.5 -18.5q35 0 45 -5t10 -23v-47q0 -31 -39 -31h-272q-39 0 -39 31v67q0 23 28 96l93 238l-347 764q-16 35 -38.5 52.5t-41 17.5t-32 6t-13.5 24zM358 1049l291 290q59 59 103 60q25 0 45 -16.5t20 -49.5q0 -29 -12 -44t-53 -42 l-312 -198h-82z" />
<glyph unicode="&#xfe;" d="M37 -360q0 20 13 27t50 7q41 0 55.5 16.5t14.5 67.5v1403q0 41 -27 41q-10 0 -41.5 -14t-40.5 -14q-20 0 -20 30v56q0 20 29 32l268 135q33 14 39 15q20 0 20 -21v-59q0 -27 -20 -41l-37 -23q-18 -12 -18 -45v-454q160 160 329 159q195 0 309.5 -142t114.5 -337 q0 -215 -132 -357t-343 -142q-168 0 -278 65v-287q0 -51 15 -67.5t64 -16.5q47 0 61.5 -7t14.5 -27v-41q0 -31 -39 -31h-362q-39 0 -39 31v41zM322 344q0 -117 76.5 -183.5t187.5 -66.5q55 0 111.5 19.5t108.5 58.5t85 112.5t33 172.5q0 160 -80 264t-236 104 q-90 0 -154.5 -41t-131.5 -120v-320z" />
<glyph unicode="&#xff;" horiz-adv-x="1024" d="M-23 864v43q0 31 39 31h316q39 0 39 -31v-43q0 -33 -45 -33q-31 0 -49.5 -12t-18.5 -28q0 -27 18 -72l252 -549l236 561q14 31 14 64q0 37 -80 36q-31 0 -30 31v45q0 31 39 31h297q39 0 38 -31v-47q0 -20 -14 -26.5t-34.5 -6.5t-46 -20.5t-42.5 -63.5l-352 -862 q-37 -92 -37 -141q0 -29 28.5 -47.5t78.5 -18.5q35 0 45 -5t10 -23v-47q0 -31 -39 -31h-272q-39 0 -39 31v67q0 23 28 96l93 238l-347 764q-16 35 -38.5 52.5t-41 17.5t-32 6t-13.5 24zM211 1176q0 41 31 59l84 49q33 18 55 18.5t22 -36.5v-84q0 -29 -10 -41 q-10 -14 -75.5 -50t-84.5 -36q-23 0 -22 37v84zM621 1176q0 41 30 59l84 49q33 18 55.5 18.5t22.5 -36.5v-84q0 -29 -10 -41q-10 -14 -75.5 -50t-84.5 -36q-23 0 -22 37v84z" />
<glyph unicode="&#x152;" horiz-adv-x="1933" d="M76 705q0 340 190.5 523t526.5 183q72 0 198.5 -12.5t225.5 -12.5h475q37 0 49 -7t20 -29l47 -129q8 -18 9 -41q0 -33 -58 -33q-29 0 -55.5 19.5t-46 43t-67.5 43t-117 19.5h-318v-481h318q51 0 83.5 29.5t67.5 29.5q29 0 40 -8t22 -33l55 -133q8 -18 8 -51 q0 -31 -51 -31q-27 0 -84.5 41t-134.5 41h-324v-561h358q86 0 144.5 22.5t80 49t44 49t47.5 22.5h57q27 0 27 -25q0 -8 -12 -40l-66 -162q-12 -31 -63 -31h-555q-186 0 -308 -16q-57 -8 -127 -9q-326 0 -516 201t-190 529zM256 731q0 -137 26.5 -247.5t84 -200.5t158 -139.5 t235.5 -49.5q106 0 167.5 19.5t61.5 79.5v983q0 70 -58.5 93t-172.5 23q-238 0 -370 -157.5t-132 -403.5z" />
<glyph unicode="&#x153;" horiz-adv-x="1705" d="M59 465q0 213 135.5 353t331.5 140q125 0 228.5 -58t167.5 -165q59 102 164.5 162.5t226.5 60.5q127 0 241.5 -68.5t114.5 -189.5q0 -23 -7 -41t-13.5 -29t-28 -26.5t-27.5 -19.5t-36.5 -18.5t-32.5 -16.5l-471 -244q31 -92 113.5 -142t183.5 -50q68 0 133 23.5t106 48 t47 24.5q23 0 38.5 -17.5t15.5 -37.5q0 -55 -127 -114.5t-258 -59.5t-218.5 49t-162.5 161q-121 -211 -389 -210q-233 0 -354.5 134t-121.5 351zM223 463q0 -172 82 -274.5t227.5 -102.5t230.5 102.5t85 272.5q0 176 -85 283.5t-231 107.5q-143 0 -226 -106.5t-83 -282.5z M999 512q0 -53 13 -88l399 205q43 23 55.5 39t12.5 45q0 61 -50.5 96t-123.5 35q-121 0 -213.5 -92.5t-92.5 -239.5z" />
<glyph unicode="&#x178;" d="M-12 1305v51q0 31 39 30h387q39 0 39 -30v-43q0 -23 -9.5 -32t-35.5 -9q-100 0 -101 -58q0 -18 31 -79l299 -562l254 545q29 66 29 99q0 23 -27 39t-72 16q-55 0 -55 28v56q0 31 39 30h369q39 0 38 -30v-53q0 -31 -43 -31q-57 0 -86 -62l-411 -897q-41 -86 -41 -123 q0 -76 117 -75q53 0 53 -39v-45q0 -31 -39 -31h-324q-39 0 -39 31q0 43 25 88l106 211q20 41 21 61q0 27 -23 70l-378 706q-57 104 -117 105q-45 0 -45 33zM281 1589q0 41 30 60l84 49q33 18 55.5 18t22.5 -37v-84q0 -29 -10 -41q-10 -14 -75.5 -50t-84.5 -36q-23 0 -22 37 v84zM690 1589q0 41 31 60l84 49q33 18 55.5 18t22.5 -37v-84q0 -29 -11 -41q-10 -14 -75.5 -50t-83.5 -36q-23 0 -23 37v84z" />
<glyph unicode="&#x2c6;" horiz-adv-x="454" d="M-90 1049l254 340h127l256 -340h-70l-250 211l-245 -211h-72z" />
<glyph unicode="&#x2dc;" horiz-adv-x="454" d="M-111 1100q16 90 75 148.5t149 58.5q51 0 141 -47.5t129 -47.5q49 0 75.5 26t47.5 77h59q-47 -215 -227 -215q-63 0 -150 47q-82 45 -127 45q-84 0 -110 -92h-62z" />
<glyph unicode="&#x2000;" horiz-adv-x="937" />
<glyph unicode="&#x2001;" horiz-adv-x="1878" />
<glyph unicode="&#x2002;" horiz-adv-x="937" />
<glyph unicode="&#x2003;" horiz-adv-x="1878" />
<glyph unicode="&#x2004;" horiz-adv-x="624" />
<glyph unicode="&#x2005;" horiz-adv-x="468" />
<glyph unicode="&#x2006;" horiz-adv-x="311" />
<glyph unicode="&#x2007;" horiz-adv-x="311" />
<glyph unicode="&#x2008;" horiz-adv-x="233" />
<glyph unicode="&#x2009;" horiz-adv-x="374" />
<glyph unicode="&#x200a;" horiz-adv-x="102" />
<glyph unicode="&#x2010;" horiz-adv-x="681" d="M106 440v60q0 29 29 28h410q31 0 30 -30v-60q0 -29 -34 -28h-404q-31 -1 -31 30z" />
<glyph unicode="&#x2011;" horiz-adv-x="681" d="M106 440v60q0 29 29 28h410q31 0 30 -30v-60q0 -29 -34 -28h-404q-31 -1 -31 30z" />
<glyph unicode="&#x2012;" horiz-adv-x="681" d="M106 440v60q0 29 29 28h410q31 0 30 -30v-60q0 -29 -34 -28h-404q-31 -1 -31 30z" />
<glyph unicode="&#x2013;" horiz-adv-x="1024" d="M0 420v98h1024v-98h-1024z" />
<glyph unicode="&#x2014;" horiz-adv-x="2048" d="M0 420v98h2048v-98h-2048z" />
<glyph unicode="&#x2018;" horiz-adv-x="454" d="M82 1159q0 68 50 160t101 92q29 0 29 -20q0 -6 -25.5 -51.5t-25.5 -75.5q0 -29 39 -69t39 -73q0 -39 -29 -64.5t-70 -25.5q-108 0 -108 127z" />
<glyph unicode="&#x2019;" horiz-adv-x="454" d="M166 1321q0 39 28.5 64.5t69.5 25.5q109 0 109 -127q0 -68 -50.5 -160t-101.5 -92q-29 0 -28 21q0 8 25.5 51t25.5 76q0 29 -39 68.5t-39 72.5z" />
<glyph unicode="&#x201a;" horiz-adv-x="454" d="M166 111q0 39 28.5 64.5t69.5 25.5q109 0 109 -127q0 -68 -50.5 -160t-101.5 -92q-29 0 -28 20q0 6 25.5 51.5t25.5 75.5q0 29 -39 69t-39 73z" />
<glyph unicode="&#x201c;" horiz-adv-x="796" d="M82 1159q0 68 50 160t101 92q29 0 29 -20q0 -6 -25.5 -51.5t-25.5 -75.5q0 -29 39 -69t39 -73q0 -39 -29 -64.5t-70 -25.5q-108 0 -108 127zM424 1159q0 68 50 160t101 92q29 0 29 -20q0 -6 -25.5 -51.5t-25.5 -75.5q0 -29 39 -69t39 -73q0 -39 -29 -64.5t-70 -25.5 q-108 0 -108 127z" />
<glyph unicode="&#x201d;" horiz-adv-x="796" d="M166 1321q0 39 28.5 64.5t69.5 25.5q109 0 109 -127q0 -68 -50.5 -160t-101.5 -92q-29 0 -28 21q0 8 25.5 51t25.5 76q0 29 -39 68.5t-39 72.5zM508 1321q0 39 28.5 64.5t69.5 25.5q109 0 109 -127q0 -68 -50.5 -160t-101.5 -92q-29 0 -28 21q0 8 25.5 51t25.5 76 q0 29 -39 68.5t-39 72.5z" />
<glyph unicode="&#x201e;" horiz-adv-x="796" d="M166 111q0 39 28.5 64.5t69.5 25.5q109 0 109 -127q0 -68 -50.5 -160t-101.5 -92q-29 0 -28 20q0 6 25.5 51.5t25.5 75.5q0 29 -39 69t-39 73zM508 111q0 39 28.5 64.5t69.5 25.5q109 0 109 -127q0 -68 -50.5 -160t-101.5 -92q-29 0 -28 20q0 6 25.5 51.5t25.5 75.5 q0 29 -39 69t-39 73z" />
<glyph unicode="&#x2022;" horiz-adv-x="1024" d="M166 692.5q0 145.5 99.5 245.5t246.5 100t246.5 -100t99.5 -245.5t-99.5 -246t-246.5 -100.5t-246.5 100.5t-99.5 246z" />
<glyph unicode="&#x2026;" horiz-adv-x="2048" d="M236 94q0 41 31.5 74t74.5 33t75 -33t32 -74t-32 -73.5t-75 -32.5t-74.5 32.5t-31.5 73.5zM918 94q0 41 31.5 74t74.5 33t74.5 -33t31.5 -74t-31.5 -73.5t-74.5 -32.5t-74.5 32.5t-31.5 73.5zM1599 94q0 41 32 74t75 33t74.5 -33t31.5 -74t-31.5 -73.5t-74.5 -32.5 t-75 32.5t-32 73.5z" />
<glyph unicode="&#x202f;" horiz-adv-x="374" />
<glyph unicode="&#x2039;" horiz-adv-x="681" d="M129 481l248 283q29 33 59 33h62q31 0 30 -19q0 -14 -10 -26l-190 -271l188 -260q12 -18 12 -31q0 -25 -24 -24h-64q-33 0 -53 22z" />
<glyph unicode="&#x203a;" horiz-adv-x="681" d="M154 190q0 12 12 31l188 260l-190 271q-10 12 -10 26q0 18 30 19h62q31 0 59 -33l248 -283l-258 -293q-20 -23 -53 -22h-64q-24 -1 -24 24z" />
<glyph unicode="&#x205f;" horiz-adv-x="468" />
<glyph unicode="&#x20ac;" d="M33 557v53q0 31 39 31h125v31q0 35 4 100h-129q-39 0 -39 31v53q0 31 39 31h143q43 240 181.5 378t359.5 138q86 0 167 -26.5t95 -57.5q37 -86 37 -172q0 -25 -66 -25q-14 0 -35.5 24.5t-45 55.5t-75 55.5t-116.5 24.5q-133 0 -223.5 -100.5t-122.5 -294.5h438 q39 0 39 -31v-53q0 -31 -39 -31h-451q-4 -66 -4 -104v-27h455q39 0 39 -31v-53q0 -31 -39 -31h-447q23 -203 119.5 -313.5t259.5 -110.5q78 0 135.5 41t90 81t53.5 40q41 0 53 -7t12 -26q0 -12 -20.5 -82.5t-36.5 -85.5q-96 -80 -309 -79.5t-348 148t-166 394.5h-133 q-39 0 -39 31z" />
<glyph unicode="&#x2122;" horiz-adv-x="2027" d="M74 1206v180h694v-180h-39q-35 141 -139 142h-105v-680q0 -39 18.5 -51.5t84.5 -18.5v-39h-334v39q66 6 84 18.5t18 51.5v680h-104q-104 0 -139 -142h-39zM860 1348v38h236l321 -645l336 645h201v-38q-63 -2 -90 -32t-27 -85v-563q0 -39 18.5 -51.5t83.5 -18.5v-39h-333 v39q66 6 84 18.5t18 51.5v528h-4l-318 -643h-18l-311 637h-4v-461q0 -68 21.5 -95.5t84.5 -35.5v-39h-266v39q66 8 87 36t21 95v516q0 43 -47 73t-94 30z" />
<glyph unicode="&#xe000;" horiz-adv-x="940" d="M0 940h940v-940h-940v940z" />
<glyph unicode="&#xfb01;" horiz-adv-x="1024" d="M72 35v33q0 39 57 38q51 0 65.5 14.5t14.5 69.5v535l-51 -25q-33 -16 -52 -16q-29 0 -28 31v61q0 25 33 39l98 49v281q0 49 16.5 97t50 94t100 76t156.5 30q117 0 218.5 -31t101.5 -80v-74q0 -29 -21.5 -48t-50.5 -19q-35 0 -57.5 22.5t-35.5 50t-52 50t-103 22.5 q-90 0 -131 -56t-41 -134v-234l68 27q55 20 70 20q31 0 30 -28v-60q0 -23 -10 -32t-35 -17l-123 -49v-582q0 -55 16.5 -69.5t72.5 -14.5q57 0 57 -36v-35q0 -35 -37 -35h-358q-39 0 -39 35zM588 31v35q0 41 47 40q49 0 64.5 15.5t15.5 68.5v496q0 39 -39 39q-12 0 -37 -8 t-33 -8q-18 0 -18 24v45q0 23 20 33l127 62q59 30 85 44.5t48.5 24.5t30.5 13t16 3q33 0 33 -26v-39q0 -27 -28 -45q-33 -20 -43.5 -34.5t-10.5 -43.5v-580q0 -53 15.5 -68.5t64.5 -15.5q45 0 45 -40v-35q0 -31 -39 -31h-325q-39 0 -39 31z" />
<glyph unicode="&#xfb02;" horiz-adv-x="1024" d="M72 35v33q0 39 57 38q51 0 65.5 14.5t14.5 69.5v535l-51 -25q-33 -16 -52 -16q-29 0 -28 31v61q0 25 33 39l98 49v281q0 49 16.5 97t50 94t100 76t156.5 30q150 0 269 -49l42 19q24 11 29 15q29 14 43 15q33 0 33 -27v-39q0 -27 -28 -45q-33 -20 -43.5 -34.5t-10.5 -43.5 v-1063q0 -53 15.5 -68.5t64.5 -15.5q45 0 45 -40v-35q0 -31 -39 -31h-325q-39 0 -39 31v35q0 41 47 40q49 0 64.5 15.5t15.5 68.5v969q0 68 -57.5 122t-125.5 54q-90 0 -131 -56t-41 -134v-234l68 27q55 20 70 20q31 0 30 -28v-60q0 -23 -10 -32t-35 -17l-123 -49v-582 q0 -55 16.5 -69.5t72.5 -14.5q57 0 57 -36v-35q0 -35 -37 -35h-358q-39 0 -39 35z" />
<glyph unicode="&#xfb03;" horiz-adv-x="1593" d="M72 35v33q0 39 57 38q51 0 65.5 14.5t14.5 69.5v535l-51 -25q-33 -16 -52 -16q-29 0 -28 31v61q0 25 33 39l98 49v281q0 111 76.5 204t244.5 93q117 0 180.5 -26.5t63.5 -69.5v-72q0 -33 -15.5 -44t-64.5 -11q-35 0 -84 58t-100 58q-76 0 -113 -57t-37 -133v-234l68 27 q55 20 70 20q31 0 30 -28v-60q0 -23 -10 -32t-35 -17l-123 -49v-582q0 -55 16.5 -69.5t72.5 -14.5q57 0 57 -36v-35q0 -35 -37 -35h-358q-39 0 -39 35zM641 35v33q0 39 57 38q51 0 65.5 14.5t14.5 69.5v535l-51 -25q-33 -16 -51 -16q-29 0 -29 31v61q0 25 33 39l98 49v281 q0 111 77 204t245 93q117 0 180 -26.5t63 -69.5v-72q0 -33 -15 -44t-64 -11q-35 0 -84.5 58t-100.5 58q-76 0 -112.5 -57t-36.5 -133v-234l67 27q55 20 70 20q31 0 31 -28v-60q0 -23 -10.5 -32t-34.5 -17l-123 -49v-582q0 -55 16.5 -69.5t71.5 -14.5q57 0 57 -36v-35 q0 -35 -37 -35h-358q-39 0 -39 35zM1163 31v35q0 41 47 40q49 0 64.5 15.5t15.5 68.5v496q0 39 -39 39q-14 0 -38.5 -8t-30.5 -8q-18 0 -19 24v45q0 23 21 33l127 62q59 30 84.5 44.5t48 24.5t31 13t16.5 3q33 0 33 -26v-39q0 -27 -29 -45q-33 -20 -43 -34.5t-10 -43.5v-580 q0 -53 15.5 -68.5t64.5 -15.5q45 0 45 -40v-35q0 -31 -39 -31h-326q-39 0 -39 31zM1241 1108v115q0 23 13.5 35t60.5 32q86 43 100 43q33 0 33 -24v-115q0 -27 -16.5 -39t-71.5 -41q-82 -43 -96 -43q-23 0 -23 37z" />
<glyph unicode="&#xfb04;" horiz-adv-x="1593" d="M72 35v33q0 39 57 38q51 0 65.5 14.5t14.5 69.5v535l-51 -25q-33 -16 -52 -16q-29 0 -28 31v61q0 25 33 39l98 49v281q0 111 76.5 204t244.5 93q117 0 180.5 -26.5t63.5 -69.5v-72q0 -33 -15.5 -44t-64.5 -11q-35 0 -84 58t-100 58q-76 0 -113 -57t-37 -133v-234l68 27 q55 20 70 20q31 0 30 -28v-60q0 -23 -10 -32t-35 -17l-123 -49v-582q0 -55 16.5 -69.5t72.5 -14.5q57 0 57 -36v-35q0 -35 -37 -35h-358q-39 0 -39 35zM641 35v33q0 39 57 38q51 0 65.5 14.5t14.5 69.5v535l-51 -25q-33 -16 -51 -16q-29 0 -29 31v61q0 25 33 39l98 49v281 q0 111 77 204t245 93q117 0 180 -26.5t63 -69.5v-72q0 -33 -15 -44t-64 -11q-35 0 -84.5 58t-100.5 58q-76 0 -112.5 -57t-36.5 -133v-234l67 27q55 20 70 20q31 0 31 -28v-60q0 -23 -10.5 -32t-34.5 -17l-123 -49v-582q0 -55 16.5 -69.5t71.5 -14.5q57 0 57 -36v-35 q0 -35 -37 -35h-358q-39 0 -39 35zM1161 1204v56q0 20 29 32l268 135q33 14 39 15q20 0 21 -21v-59q0 -27 -21 -41l-37 -23q-18 -12 -18 -45v-1063q0 -53 15.5 -68.5t64.5 -15.5q45 0 45 -40v-35q0 -31 -39 -31h-326q-39 0 -39 31v35q0 41 47 40q49 0 64.5 15.5t15.5 68.5 v971q0 41 -26 41q-10 0 -42 -14t-40 -14q-21 -1 -21 30z" />
</font>
</defs>
</svg>
